<?xml version="1.0" encoding="UTF-8" standalone="no"?>
<!DOCTYPE svg PUBLIC "-//W3C//DTD SVG 1.1//EN"
 "http://www.w3.org/Graphics/SVG/1.1/DTD/svg11.dtd">
<!-- Generated by graphviz version 2.38.0 (20140413.2041)
 -->
<!-- Title: %3 Pages: 1 -->
<svg width="2392pt" height="222pt"
 viewBox="0.00 0.00 2392.00 222.45" xmlns="http://www.w3.org/2000/svg" xmlns:xlink="http://www.w3.org/1999/xlink">
<g id="graph0" class="graph" transform="scale(1 1) rotate(0) translate(4 218.451)">
<title>%3</title>
<polygon fill="white" stroke="none" points="-4,4 -4,-218.451 2388,-218.451 2388,4 -4,4"/>
<!-- A -->
<g id="node1" class="node"><title>A</title>
<polygon fill="lightgray" stroke="black" points="23,-144.702 0,-144.702 0,-126.702 23,-126.702 23,-144.702"/>
<text text-anchor="middle" x="11.5" y="-133.502" font-family="Times,serif" font-size="9.00">A</text>
</g>
<!-- A XOR B -->
<g id="node51" class="node"><title>A XOR B</title>
<ellipse fill="lightblue" stroke="black" cx="1165.5" cy="-37.4767" rx="37.4533" ry="37.4533"/>
<text text-anchor="middle" x="1165.5" y="-35.2767" font-family="Times,serif" font-size="9.00">A XOR B</text>
</g>
<!-- A&#45;&gt;A XOR B -->
<g id="edge4" class="edge"><title>A&#45;&gt;A XOR B</title>
<path fill="none" stroke="green" stroke-width="0.515787" d="M15.948,-126.587C19.4129,-121.137 24.7628,-114.353 31.5,-110.953 129.525,-61.4864 914.68,-43.244 1117.71,-39.3286"/>
<polygon fill="green" stroke="green" stroke-width="0.515787" points="1117.84,-42.8269 1127.77,-39.1372 1117.7,-35.8282 1117.84,-42.8269"/>
</g>
<!-- B -->
<g id="node2" class="node"><title>B</title>
<polygon fill="lightgray" stroke="black" points="64,-144.702 41,-144.702 41,-126.702 64,-126.702 64,-144.702"/>
<text text-anchor="middle" x="52.5" y="-133.502" font-family="Times,serif" font-size="9.00">B</text>
</g>
<!-- B&#45;&gt;A XOR B -->
<g id="edge14" class="edge"><title>B&#45;&gt;A XOR B</title>
<path fill="none" stroke="red" stroke-width="0.397354" d="M57.2676,-126.585C60.9516,-121.134 66.5838,-114.35 73.5,-110.953 168.163,-64.4632 920.027,-44.0974 1117.91,-39.5108"/>
<polygon fill="red" stroke="red" stroke-width="0.397354" points="1118.08,-43.008 1128,-39.2797 1117.92,-36.0099 1118.08,-43.008"/>
</g>
<!-- &#45;3 -->
<g id="node3" class="node"><title>&#45;3</title>
<polygon fill="lightgray" stroke="black" points="106.5,-144.702 82.5,-144.702 82.5,-126.702 106.5,-126.702 106.5,-144.702"/>
<text text-anchor="middle" x="94.5" y="-133.502" font-family="Times,serif" font-size="9.00">&#45;3</text>
</g>
<!-- &#45;3&#45;&gt;A XOR B -->
<g id="edge47" class="edge"><title>&#45;3&#45;&gt;A XOR B</title>
<path fill="none" stroke="green" stroke-width="0.119512" stroke-dasharray="1,5" d="M99.2704,-126.59C102.956,-121.142 108.588,-114.359 115.5,-110.953 206.183,-66.2692 924.748,-44.679 1117.86,-39.6474"/>
<polygon fill="green" stroke="green" stroke-width="0.119512" points="1118.07,-43.1432 1127.98,-39.3864 1117.89,-36.1455 1118.07,-43.1432"/>
</g>
<!-- &#45;4 -->
<g id="node4" class="node"><title>&#45;4</title>
<polygon fill="lightgray" stroke="black" points="148.5,-144.702 124.5,-144.702 124.5,-126.702 148.5,-126.702 148.5,-144.702"/>
<text text-anchor="middle" x="136.5" y="-133.502" font-family="Times,serif" font-size="9.00">&#45;4</text>
</g>
<!-- &#45;4&#45;&gt;A XOR B -->
<g id="edge37" class="edge"><title>&#45;4&#45;&gt;A XOR B</title>
<path fill="none" stroke="green" stroke-width="0.658111" d="M141.273,-126.597C144.96,-121.151 150.593,-114.369 157.5,-110.953 244.227,-68.064 929.862,-45.2766 1117.93,-39.7919"/>
<polygon fill="green" stroke="green" stroke-width="0.658111" points="1118.16,-43.2868 1128.06,-39.4994 1117.96,-36.2897 1118.16,-43.2868"/>
</g>
<!-- &#45;5 -->
<g id="node5" class="node"><title>&#45;5</title>
<polygon fill="lightgray" stroke="black" points="190.5,-144.702 166.5,-144.702 166.5,-126.702 190.5,-126.702 190.5,-144.702"/>
<text text-anchor="middle" x="178.5" y="-133.502" font-family="Times,serif" font-size="9.00">&#45;5</text>
</g>
<!-- &#45;5&#45;&gt;A XOR B -->
<g id="edge28" class="edge"><title>&#45;5&#45;&gt;A XOR B</title>
<path fill="none" stroke="green" stroke-width="0.126013" stroke-dasharray="1,5" d="M183.277,-126.603C186.965,-121.161 192.598,-114.38 199.5,-110.953 282.25,-69.8706 934.639,-45.9169 1117.82,-39.9546"/>
<polygon fill="green" stroke="green" stroke-width="0.126013" points="1118.06,-43.4486 1127.95,-39.6278 1117.84,-36.4522 1118.06,-43.4486"/>
</g>
<!-- &#45;6 -->
<g id="node6" class="node"><title>&#45;6</title>
<polygon fill="lightgray" stroke="black" points="232.5,-144.702 208.5,-144.702 208.5,-126.702 232.5,-126.702 232.5,-144.702"/>
<text text-anchor="middle" x="220.5" y="-133.502" font-family="Times,serif" font-size="9.00">&#45;6</text>
</g>
<!-- &#45;6&#45;&gt;A XOR B -->
<g id="edge18" class="edge"><title>&#45;6&#45;&gt;A XOR B</title>
<path fill="none" stroke="red" stroke-width="0.260138" stroke-dasharray="1,5" d="M225.28,-126.61C228.97,-121.172 234.604,-114.391 241.5,-110.953 320.302,-71.664 939.873,-46.5755 1117.85,-40.1273"/>
<polygon fill="red" stroke="red" stroke-width="0.260138" points="1118.08,-43.6212 1127.95,-39.7642 1117.83,-36.6257 1118.08,-43.6212"/>
</g>
<!-- &#45;7 -->
<g id="node7" class="node"><title>&#45;7</title>
<polygon fill="lightgray" stroke="black" points="274.5,-144.702 250.5,-144.702 250.5,-126.702 274.5,-126.702 274.5,-144.702"/>
<text text-anchor="middle" x="262.5" y="-133.502" font-family="Times,serif" font-size="9.00">&#45;7</text>
</g>
<!-- &#45;7&#45;&gt;A XOR B -->
<g id="edge9" class="edge"><title>&#45;7&#45;&gt;A XOR B</title>
<path fill="none" stroke="red" stroke-width="0.739941" d="M268.845,-126.6C273.615,-121.157 280.655,-114.375 288.5,-110.953 439.399,-45.1318 957.79,-38.7691 1117.97,-38.4027"/>
<polygon fill="red" stroke="red" stroke-width="0.739941" points="1118,-41.9028 1127.99,-38.3867 1117.98,-34.9028 1118,-41.9028"/>
</g>
<!-- &#45;8 -->
<g id="node8" class="node"><title>&#45;8</title>
<polygon fill="lightgray" stroke="black" points="329.5,-214.451 305.5,-214.451 305.5,-196.451 329.5,-196.451 329.5,-214.451"/>
<text text-anchor="middle" x="317.5" y="-203.251" font-family="Times,serif" font-size="9.00">&#45;8</text>
</g>
<!-- &#45;8&#45;&gt;A XOR B -->
<g id="edge54" class="edge"><title>&#45;8&#45;&gt;A XOR B</title>
<path fill="none" stroke="green" stroke-width="0.401137" stroke-dasharray="1,5" d="M314.764,-196.355C309.224,-178.285 299.021,-134.418 321.5,-110.953 376.837,-53.1891 947.735,-41.2606 1117.89,-38.9809"/>
<polygon fill="green" stroke="green" stroke-width="0.401137" points="1118.09,-42.4788 1128.04,-38.8501 1118,-35.4794 1118.09,-42.4788"/>
</g>
<!-- 1320 -->
<g id="node52" class="node"><title>1320</title>
<ellipse fill="white" stroke="black" cx="355.5" cy="-135.702" rx="25" ry="25"/>
<text text-anchor="middle" x="355.5" y="-133.502" font-family="Times,serif" font-size="9.00">1320</text>
</g>
<!-- &#45;8&#45;&gt;1320 -->
<g id="edge3" class="edge"><title>&#45;8&#45;&gt;1320</title>
<path fill="none" stroke="green" stroke-width="0.150376" d="M322.008,-196.413C326.155,-189.02 332.57,-177.583 338.68,-166.69"/>
<polygon fill="green" stroke="green" stroke-width="0.150376" points="341.845,-168.202 343.684,-157.768 335.739,-164.778 341.845,-168.202"/>
</g>
<!-- &#45;9 -->
<g id="node9" class="node"><title>&#45;9</title>
<polygon fill="lightgray" stroke="black" points="498.5,-144.702 474.5,-144.702 474.5,-126.702 498.5,-126.702 498.5,-144.702"/>
<text text-anchor="middle" x="486.5" y="-133.502" font-family="Times,serif" font-size="9.00">&#45;9</text>
</g>
<!-- &#45;9&#45;&gt;A XOR B -->
<g id="edge35" class="edge"><title>&#45;9&#45;&gt;A XOR B</title>
<path fill="none" stroke="red" stroke-width="0.746094" stroke-dasharray="1,5" d="M491.314,-126.677C495.02,-121.269 500.659,-114.499 507.5,-110.953 614.046,-55.7245 984.668,-42.3717 1117.59,-39.3264"/>
<polygon fill="red" stroke="red" stroke-width="0.746094" points="1117.94,-42.8197 1127.86,-39.101 1117.78,-35.8214 1117.94,-42.8197"/>
</g>
<!-- &#45;10 -->
<g id="node10" class="node"><title>&#45;10</title>
<polygon fill="lightgray" stroke="black" points="546,-144.702 517,-144.702 517,-126.702 546,-126.702 546,-144.702"/>
<text text-anchor="middle" x="531.5" y="-133.502" font-family="Times,serif" font-size="9.00">&#45;10</text>
</g>
<!-- &#45;10&#45;&gt;A XOR B -->
<g id="edge27" class="edge"><title>&#45;10&#45;&gt;A XOR B</title>
<path fill="none" stroke="green" stroke-width="0.290306" d="M536.952,-126.689C541.095,-121.287 547.299,-114.519 554.5,-110.953 653.547,-61.9126 991.695,-44.798 1117.68,-40.0389"/>
<polygon fill="green" stroke="green" stroke-width="0.290306" points="1117.93,-43.5322 1127.79,-39.6664 1117.67,-36.537 1117.93,-43.5322"/>
</g>
<!-- &#45;11 -->
<g id="node11" class="node"><title>&#45;11</title>
<polygon fill="lightgray" stroke="black" points="593,-144.702 564,-144.702 564,-126.702 593,-126.702 593,-144.702"/>
<text text-anchor="middle" x="578.5" y="-133.502" font-family="Times,serif" font-size="9.00">&#45;11</text>
</g>
<!-- &#45;11&#45;&gt;A XOR B -->
<g id="edge17" class="edge"><title>&#45;11&#45;&gt;A XOR B</title>
<path fill="none" stroke="green" stroke-width="0.165623" d="M584.323,-126.245C588.466,-120.935 594.521,-114.451 601.5,-110.953 691.883,-65.653 998.665,-46.4463 1117.72,-40.5771"/>
<polygon fill="green" stroke="green" stroke-width="0.165623" points="1118.16,-44.0602 1127.98,-40.0818 1117.82,-37.0684 1118.16,-44.0602"/>
</g>
<!-- &#45;12 -->
<g id="node12" class="node"><title>&#45;12</title>
<polygon fill="lightgray" stroke="black" points="640,-144.702 611,-144.702 611,-126.702 640,-126.702 640,-144.702"/>
<text text-anchor="middle" x="625.5" y="-133.502" font-family="Times,serif" font-size="9.00">&#45;12</text>
</g>
<!-- &#45;12&#45;&gt;A XOR B -->
<g id="edge8" class="edge"><title>&#45;12&#45;&gt;A XOR B</title>
<path fill="none" stroke="green" stroke-width="0.117454" d="M631.336,-126.271C635.485,-120.972 641.542,-114.491 648.5,-110.953 730.275,-69.379 1005.99,-48.2361 1117.8,-41.2079"/>
<polygon fill="green" stroke="green" stroke-width="0.117454" points="1118.02,-44.7013 1127.78,-40.5908 1117.59,-37.7147 1118.02,-44.7013"/>
</g>
<!-- &#45;13 -->
<g id="node13" class="node"><title>&#45;13</title>
<polygon fill="lightgray" stroke="black" points="687,-144.702 658,-144.702 658,-126.702 687,-126.702 687,-144.702"/>
<text text-anchor="middle" x="672.5" y="-133.502" font-family="Times,serif" font-size="9.00">&#45;13</text>
</g>
<!-- &#45;13&#45;&gt;A XOR B -->
<g id="edge53" class="edge"><title>&#45;13&#45;&gt;A XOR B</title>
<path fill="none" stroke="red" stroke-width="0.665031" stroke-dasharray="1,5" d="M678.353,-126.303C682.508,-121.017 688.566,-114.539 695.5,-110.953 768.707,-73.1003 1013.58,-50.2085 1117.84,-41.9641"/>
<polygon fill="red" stroke="red" stroke-width="0.665031" points="1118.37,-45.4331 1128.07,-41.1665 1117.83,-38.4543 1118.37,-45.4331"/>
</g>
<!-- &#45;14 -->
<g id="node14" class="node"><title>&#45;14</title>
<polygon fill="lightgray" stroke="black" points="734,-144.702 705,-144.702 705,-126.702 734,-126.702 734,-144.702"/>
<text text-anchor="middle" x="719.5" y="-133.502" font-family="Times,serif" font-size="9.00">&#45;14</text>
</g>
<!-- &#45;14&#45;&gt;A XOR B -->
<g id="edge41" class="edge"><title>&#45;14&#45;&gt;A XOR B</title>
<path fill="none" stroke="green" stroke-width="0.610794" stroke-dasharray="1,5" d="M725.372,-126.341C729.537,-121.071 735.596,-114.596 742.5,-110.953 807.271,-76.7742 1022.01,-52.3493 1118.19,-42.8531"/>
<polygon fill="green" stroke="green" stroke-width="0.610794" points="1118.61,-46.3292 1128.22,-41.8747 1117.93,-39.3623 1118.61,-46.3292"/>
</g>
<!-- &#45;15 -->
<g id="node15" class="node"><title>&#45;15</title>
<polygon fill="lightgray" stroke="black" points="781,-144.702 752,-144.702 752,-126.702 781,-126.702 781,-144.702"/>
<text text-anchor="middle" x="766.5" y="-133.502" font-family="Times,serif" font-size="9.00">&#45;15</text>
</g>
<!-- &#45;15&#45;&gt;A XOR B -->
<g id="edge32" class="edge"><title>&#45;15&#45;&gt;A XOR B</title>
<path fill="none" stroke="red" stroke-width="0.345764" d="M772.398,-126.388C776.572,-121.138 782.634,-114.668 789.5,-110.953 896.721,-52.9454 1043.26,-40.853 1117.77,-38.6605"/>
<polygon fill="red" stroke="red" stroke-width="0.345764" points="1117.89,-42.1588 1127.8,-38.4131 1117.72,-35.161 1117.89,-42.1588"/>
</g>
<!-- &#45;16 -->
<g id="node16" class="node"><title>&#45;16</title>
<polygon fill="lightgray" stroke="black" points="828,-144.702 799,-144.702 799,-126.702 828,-126.702 828,-144.702"/>
<text text-anchor="middle" x="813.5" y="-133.502" font-family="Times,serif" font-size="9.00">&#45;16</text>
</g>
<!-- &#45;16&#45;&gt;A XOR B -->
<g id="edge1" class="edge"><title>&#45;16&#45;&gt;A XOR B</title>
<path fill="none" stroke="red" stroke-width="0.45849" stroke-dasharray="1,5" d="M819.43,-126.447C823.619,-121.223 829.684,-114.758 836.5,-110.953 927.393,-60.2161 1050.92,-44.9958 1117.78,-40.4311"/>
<polygon fill="red" stroke="red" stroke-width="0.45849" points="1118.25,-43.9085 1128.01,-39.7861 1117.81,-36.9224 1118.25,-43.9085"/>
</g>
<!-- &#45;17 -->
<g id="node17" class="node"><title>&#45;17</title>
<polygon fill="lightgray" stroke="black" points="875,-144.702 846,-144.702 846,-126.702 875,-126.702 875,-144.702"/>
<text text-anchor="middle" x="860.5" y="-133.502" font-family="Times,serif" font-size="9.00">&#45;17</text>
</g>
<!-- &#45;17&#45;&gt;A XOR B -->
<g id="edge7" class="edge"><title>&#45;17&#45;&gt;A XOR B</title>
<path fill="none" stroke="green" stroke-width="0.469009" d="M866.475,-126.525C870.682,-121.333 876.751,-114.876 883.5,-110.953 958.33,-67.4616 1059.21,-49.7258 1117.82,-42.7485"/>
<polygon fill="green" stroke="green" stroke-width="0.469009" points="1118.36,-46.2094 1127.91,-41.6049 1117.58,-39.254 1118.36,-46.2094"/>
</g>
<!-- &#45;18 -->
<g id="node18" class="node"><title>&#45;18</title>
<polygon fill="lightgray" stroke="black" points="922,-144.702 893,-144.702 893,-126.702 922,-126.702 922,-144.702"/>
<text text-anchor="middle" x="907.5" y="-133.502" font-family="Times,serif" font-size="9.00">&#45;18</text>
</g>
<!-- &#45;18&#45;&gt;A XOR B -->
<g id="edge51" class="edge"><title>&#45;18&#45;&gt;A XOR B</title>
<path fill="none" stroke="green" stroke-width="0.367957" stroke-dasharray="1,5" d="M913.537,-126.63C917.771,-121.483 923.846,-115.035 930.5,-110.953 989.787,-74.5809 1068.79,-55.1504 1118.4,-45.8288"/>
<polygon fill="green" stroke="green" stroke-width="0.367957" points="1119.31,-49.221 1128.52,-43.9906 1118.06,-42.3336 1119.31,-49.221"/>
</g>
<!-- &#45;19 -->
<g id="node19" class="node"><title>&#45;19</title>
<polygon fill="lightgray" stroke="black" points="969,-144.702 940,-144.702 940,-126.702 969,-126.702 969,-144.702"/>
<text text-anchor="middle" x="954.5" y="-133.502" font-family="Times,serif" font-size="9.00">&#45;19</text>
</g>
<!-- &#45;19&#45;&gt;A XOR B -->
<g id="edge40" class="edge"><title>&#45;19&#45;&gt;A XOR B</title>
<path fill="none" stroke="green" stroke-width="0.37658" d="M961.014,-126.327C965.265,-121.318 971.182,-115.135 977.5,-110.953 1021.74,-81.6747 1079.53,-61.6512 1119.3,-50.192"/>
<polygon fill="green" stroke="green" stroke-width="0.37658" points="1120.33,-53.5397 1129.01,-47.4627 1118.43,-46.8012 1120.33,-53.5397"/>
</g>
<!-- &#45;20 -->
<g id="node20" class="node"><title>&#45;20</title>
<polygon fill="lightgray" stroke="black" points="1016,-144.702 987,-144.702 987,-126.702 1016,-126.702 1016,-144.702"/>
<text text-anchor="middle" x="1001.5" y="-133.502" font-family="Times,serif" font-size="9.00">&#45;20</text>
</g>
<!-- &#45;20&#45;&gt;A XOR B -->
<g id="edge31" class="edge"><title>&#45;20&#45;&gt;A XOR B</title>
<path fill="none" stroke="red" stroke-width="0.337179" d="M1008.18,-126.561C1012.49,-121.639 1018.41,-115.466 1024.5,-110.953 1054.59,-88.6373 1092.54,-69.5628 1121.49,-56.5916"/>
<polygon fill="red" stroke="red" stroke-width="0.337179" points="1123.2,-59.6645 1130.94,-52.4308 1120.38,-53.2583 1123.2,-59.6645"/>
</g>
<!-- &#45;21 -->
<g id="node21" class="node"><title>&#45;21</title>
<polygon fill="lightgray" stroke="black" points="1063,-144.702 1034,-144.702 1034,-126.702 1063,-126.702 1063,-144.702"/>
<text text-anchor="middle" x="1048.5" y="-133.502" font-family="Times,serif" font-size="9.00">&#45;21</text>
</g>
<!-- &#45;21&#45;&gt;A XOR B -->
<g id="edge22" class="edge"><title>&#45;21&#45;&gt;A XOR B</title>
<path fill="none" stroke="green" stroke-width="0.164415" d="M1055.89,-126.499C1060.27,-121.785 1066.02,-115.848 1071.5,-110.953 1089.07,-95.2619 1109.68,-79.1347 1127.13,-66.0888"/>
<polygon fill="green" stroke="green" stroke-width="0.164415" points="1129.46,-68.7156 1135.41,-59.9474 1125.29,-63.0931 1129.46,-68.7156"/>
</g>
<!-- &#45;22 -->
<g id="node22" class="node"><title>&#45;22</title>
<polygon fill="lightgray" stroke="black" points="1110,-144.702 1081,-144.702 1081,-126.702 1110,-126.702 1110,-144.702"/>
<text text-anchor="middle" x="1095.5" y="-133.502" font-family="Times,serif" font-size="9.00">&#45;22</text>
</g>
<!-- &#45;22&#45;&gt;A XOR B -->
<g id="edge12" class="edge"><title>&#45;22&#45;&gt;A XOR B</title>
<path fill="none" stroke="red" stroke-width="0.110516" d="M1101.47,-126.498C1109.5,-115.462 1124.31,-95.0972 1137.67,-76.7336"/>
<polygon fill="red" stroke="red" stroke-width="0.110516" points="1140.62,-78.6234 1143.68,-68.4778 1134.96,-74.5055 1140.62,-78.6234"/>
</g>
<!-- &#45;23 -->
<g id="node23" class="node"><title>&#45;23</title>
<polygon fill="lightgray" stroke="black" points="1157,-144.702 1128,-144.702 1128,-126.702 1157,-126.702 1157,-144.702"/>
<text text-anchor="middle" x="1142.5" y="-133.502" font-family="Times,serif" font-size="9.00">&#45;23</text>
</g>
<!-- &#45;23&#45;&gt;A XOR B -->
<g id="edge2" class="edge"><title>&#45;23&#45;&gt;A XOR B</title>
<path fill="none" stroke="red" stroke-width="0.188131" d="M1144.46,-126.498C1146.75,-116.938 1150.7,-100.377 1154.58,-84.1806"/>
<polygon fill="red" stroke="red" stroke-width="0.188131" points="1158.04,-84.7489 1156.96,-74.2092 1151.23,-83.1215 1158.04,-84.7489"/>
</g>
<!-- &#45;24 -->
<g id="node24" class="node"><title>&#45;24</title>
<polygon fill="lightgray" stroke="black" points="381,-214.451 352,-214.451 352,-196.451 381,-196.451 381,-214.451"/>
<text text-anchor="middle" x="366.5" y="-203.251" font-family="Times,serif" font-size="9.00">&#45;24</text>
</g>
<!-- &#45;24&#45;&gt;A XOR B -->
<g id="edge45" class="edge"><title>&#45;24&#45;&gt;A XOR B</title>
<path fill="none" stroke="green" stroke-width="0.542381" stroke-dasharray="1,5" d="M370.79,-196.326C381.943,-175.53 412.188,-121.284 429.5,-110.953 546.209,-41.3101 973.215,-37.2871 1117.5,-37.9802"/>
<polygon fill="green" stroke="green" stroke-width="0.542381" points="1117.77,-41.4817 1127.79,-38.0401 1117.81,-34.4818 1117.77,-41.4817"/>
</g>
<!-- &#45;24&#45;&gt;1320 -->
<g id="edge23" class="edge"><title>&#45;24&#45;&gt;1320</title>
<path fill="none" stroke="green" stroke-width="0.37961" stroke-dasharray="1,5" d="M365.195,-196.413C364.131,-189.858 362.55,-180.123 360.973,-170.408"/>
<polygon fill="green" stroke="green" stroke-width="0.37961" points="364.409,-169.734 359.352,-160.424 357.5,-170.856 364.409,-169.734"/>
</g>
<!-- &#45;25 -->
<g id="node25" class="node"><title>&#45;25</title>
<polygon fill="lightgray" stroke="black" points="1204,-144.702 1175,-144.702 1175,-126.702 1204,-126.702 1204,-144.702"/>
<text text-anchor="middle" x="1189.5" y="-133.502" font-family="Times,serif" font-size="9.00">&#45;25</text>
</g>
<!-- &#45;25&#45;&gt;A XOR B -->
<g id="edge30" class="edge"><title>&#45;25&#45;&gt;A XOR B</title>
<path fill="none" stroke="red" stroke-width="0.577227" d="M1187.45,-126.498C1185.07,-116.938 1180.94,-100.377 1176.9,-84.1806"/>
<polygon fill="red" stroke="red" stroke-width="0.577227" points="1180.23,-83.0649 1174.41,-74.2092 1173.44,-84.7589 1180.23,-83.0649"/>
</g>
<!-- &#45;26 -->
<g id="node26" class="node"><title>&#45;26</title>
<polygon fill="lightgray" stroke="black" points="1251,-144.702 1222,-144.702 1222,-126.702 1251,-126.702 1251,-144.702"/>
<text text-anchor="middle" x="1236.5" y="-133.502" font-family="Times,serif" font-size="9.00">&#45;26</text>
</g>
<!-- &#45;26&#45;&gt;A XOR B -->
<g id="edge21" class="edge"><title>&#45;26&#45;&gt;A XOR B</title>
<path fill="none" stroke="green" stroke-width="0.433771" d="M1230.45,-126.498C1222.25,-115.383 1207.06,-94.8058 1193.44,-76.3404"/>
<polygon fill="green" stroke="green" stroke-width="0.433771" points="1196.07,-74.0151 1187.32,-68.0465 1190.44,-78.1712 1196.07,-74.0151"/>
</g>
<!-- &#45;27 -->
<g id="node27" class="node"><title>&#45;27</title>
<polygon fill="lightgray" stroke="black" points="1298,-144.702 1269,-144.702 1269,-126.702 1298,-126.702 1298,-144.702"/>
<text text-anchor="middle" x="1283.5" y="-133.502" font-family="Times,serif" font-size="9.00">&#45;27</text>
</g>
<!-- &#45;27&#45;&gt;A XOR B -->
<g id="edge11" class="edge"><title>&#45;27&#45;&gt;A XOR B</title>
<path fill="none" stroke="red" stroke-width="0.327395" d="M1275.74,-126.532C1271.15,-121.829 1265.15,-115.892 1259.5,-110.953 1241.77,-95.4496 1221.13,-79.3426 1203.72,-66.2614"/>
<polygon fill="red" stroke="red" stroke-width="0.327395" points="1205.57,-63.2721 1195.46,-60.0987 1201.38,-68.8832 1205.57,-63.2721"/>
</g>
<!-- &#45;28 -->
<g id="node28" class="node"><title>&#45;28</title>
<polygon fill="lightgray" stroke="black" points="1345,-144.702 1316,-144.702 1316,-126.702 1345,-126.702 1345,-144.702"/>
<text text-anchor="middle" x="1330.5" y="-133.502" font-family="Times,serif" font-size="9.00">&#45;28</text>
</g>
<!-- &#45;28&#45;&gt;A XOR B -->
<g id="edge56" class="edge"><title>&#45;28&#45;&gt;A XOR B</title>
<path fill="none" stroke="red" stroke-width="0.476869" d="M1323.47,-126.582C1318.95,-121.668 1312.76,-115.496 1306.5,-110.953 1276.17,-88.9587 1238.23,-69.8639 1209.35,-56.8031"/>
<polygon fill="red" stroke="red" stroke-width="0.476869" points="1210.49,-53.4776 1199.93,-52.6096 1207.64,-59.873 1210.49,-53.4776"/>
</g>
<!-- &#45;29 -->
<g id="node29" class="node"><title>&#45;29</title>
<polygon fill="lightgray" stroke="black" points="1392,-144.702 1363,-144.702 1363,-126.702 1392,-126.702 1392,-144.702"/>
<text text-anchor="middle" x="1377.5" y="-133.502" font-family="Times,serif" font-size="9.00">&#45;29</text>
</g>
<!-- &#45;29&#45;&gt;A XOR B -->
<g id="edge44" class="edge"><title>&#45;29&#45;&gt;A XOR B</title>
<path fill="none" stroke="green" stroke-width="0.642109" d="M1370.64,-126.342C1366.18,-121.338 1360,-115.155 1353.5,-110.953 1308.96,-82.1469 1251.21,-62.0362 1211.54,-50.4274"/>
<polygon fill="green" stroke="green" stroke-width="0.642109" points="1212.44,-47.0443 1201.86,-47.6591 1210.52,-53.7744 1212.44,-47.0443"/>
</g>
<!-- &#45;30 -->
<g id="node30" class="node"><title>&#45;30</title>
<polygon fill="lightgray" stroke="black" points="1439,-144.702 1410,-144.702 1410,-126.702 1439,-126.702 1439,-144.702"/>
<text text-anchor="middle" x="1424.5" y="-133.502" font-family="Times,serif" font-size="9.00">&#45;30</text>
</g>
<!-- &#45;30&#45;&gt;A XOR B -->
<g id="edge34" class="edge"><title>&#45;30&#45;&gt;A XOR B</title>
<path fill="none" stroke="green" stroke-width="0.419072" stroke-dasharray="1,5" d="M1418.13,-126.64C1413.69,-121.496 1407.34,-115.05 1400.5,-110.953 1341,-75.3161 1262.39,-55.723 1212.88,-46.162"/>
<polygon fill="green" stroke="green" stroke-width="0.419072" points="1213.24,-42.67 1202.77,-44.2718 1211.96,-49.5507 1213.24,-42.67"/>
</g>
<!-- &#45;31 -->
<g id="node31" class="node"><title>&#45;31</title>
<polygon fill="lightgray" stroke="black" points="1486,-144.702 1457,-144.702 1457,-126.702 1486,-126.702 1486,-144.702"/>
<text text-anchor="middle" x="1471.5" y="-133.502" font-family="Times,serif" font-size="9.00">&#45;31</text>
</g>
<!-- &#45;31&#45;&gt;A XOR B -->
<g id="edge26" class="edge"><title>&#45;31&#45;&gt;A XOR B</title>
<path fill="none" stroke="red" stroke-width="0.679442" stroke-dasharray="1,5" d="M1465.19,-126.532C1460.77,-121.342 1454.43,-114.886 1447.5,-110.953 1372.21,-68.2601 1271.49,-50.2547 1213.03,-43.0113"/>
<polygon fill="red" stroke="red" stroke-width="0.679442" points="1213.31,-39.5206 1202.97,-41.8199 1212.49,-46.472 1213.31,-39.5206"/>
</g>
<!-- &#45;32 -->
<g id="node32" class="node"><title>&#45;32</title>
<polygon fill="lightgray" stroke="black" points="1553,-214.451 1524,-214.451 1524,-196.451 1553,-196.451 1553,-214.451"/>
<text text-anchor="middle" x="1538.5" y="-203.251" font-family="Times,serif" font-size="9.00">&#45;32</text>
</g>
<!-- &#45;32&#45;&gt;A XOR B -->
<g id="edge16" class="edge"><title>&#45;32&#45;&gt;A XOR B</title>
<path fill="none" stroke="red" stroke-width="1.00547" d="M1537.13,-196.2C1533.62,-177.815 1522.54,-133.343 1494.5,-110.953 1451.42,-76.5476 1293.35,-53.5092 1213.03,-43.7558"/>
<polygon fill="red" stroke="red" stroke-width="1.00547" points="1213.04,-40.2326 1202.7,-42.5226 1212.21,-47.1833 1213.04,-40.2326"/>
</g>
<!-- 484 -->
<g id="node53" class="node"><title>484</title>
<ellipse fill="white" stroke="black" cx="1563.5" cy="-135.702" rx="21.4286" ry="21.4286"/>
<text text-anchor="middle" x="1563.5" y="-133.502" font-family="Times,serif" font-size="9.00">484</text>
</g>
<!-- &#45;32&#45;&gt;484 -->
<g id="edge52" class="edge"><title>&#45;32&#45;&gt;484</title>
<path fill="none" stroke="green" stroke-width="0.25932" d="M1541.47,-196.413C1544.31,-188.714 1548.77,-176.631 1552.93,-165.342"/>
<polygon fill="green" stroke="green" stroke-width="0.25932" points="1556.29,-166.35 1556.47,-155.757 1549.72,-163.927 1556.29,-166.35"/>
</g>
<!-- &#45;33 -->
<g id="node33" class="node"><title>&#45;33</title>
<polygon fill="lightgray" stroke="black" points="439,-214.451 410,-214.451 410,-196.451 439,-196.451 439,-214.451"/>
<text text-anchor="middle" x="424.5" y="-203.251" font-family="Times,serif" font-size="9.00">&#45;33</text>
</g>
<!-- &#45;33&#45;&gt;A XOR B -->
<g id="edge55" class="edge"><title>&#45;33&#45;&gt;A XOR B</title>
<path fill="none" stroke="green" stroke-width="0.170133" stroke-dasharray="1,5" d="M425.379,-196.266C427.859,-177.615 436.721,-131.952 465.5,-110.953 518.09,-72.5811 968.318,-47.8657 1117.62,-40.6647"/>
<polygon fill="green" stroke="green" stroke-width="0.170133" points="1118.02,-44.1498 1127.84,-40.1766 1117.68,-37.1577 1118.02,-44.1498"/>
</g>
<!-- &#45;33&#45;&gt;1320 -->
<g id="edge49" class="edge"><title>&#45;33&#45;&gt;1320</title>
<path fill="none" stroke="green" stroke-width="0.422677" stroke-dasharray="1,5" d="M416.314,-196.413C407.421,-187.682 392.786,-173.312 380.101,-160.857"/>
<polygon fill="green" stroke="green" stroke-width="0.422677" points="382.503,-158.311 372.916,-153.802 377.599,-163.306 382.503,-158.311"/>
</g>
<!-- &#45;34 -->
<g id="node34" class="node"><title>&#45;34</title>
<polygon fill="lightgray" stroke="black" points="1632,-144.702 1603,-144.702 1603,-126.702 1632,-126.702 1632,-144.702"/>
<text text-anchor="middle" x="1617.5" y="-133.502" font-family="Times,serif" font-size="9.00">&#45;34</text>
</g>
<!-- &#45;34&#45;&gt;A XOR B -->
<g id="edge42" class="edge"><title>&#45;34&#45;&gt;A XOR B</title>
<path fill="none" stroke="green" stroke-width="0.771324" stroke-dasharray="1,5" d="M1611.3,-126.338C1606.92,-121.067 1600.59,-114.592 1593.5,-110.953 1527.51,-77.1032 1309.98,-52.4608 1212.95,-42.8776"/>
<polygon fill="green" stroke="green" stroke-width="0.771324" points="1213.13,-39.3786 1202.84,-41.8903 1212.45,-46.3454 1213.13,-39.3786"/>
</g>
<!-- &#45;35 -->
<g id="node35" class="node"><title>&#45;35</title>
<polygon fill="lightgray" stroke="black" points="1679,-144.702 1650,-144.702 1650,-126.702 1679,-126.702 1679,-144.702"/>
<text text-anchor="middle" x="1664.5" y="-133.502" font-family="Times,serif" font-size="9.00">&#45;35</text>
</g>
<!-- &#45;35&#45;&gt;A XOR B -->
<g id="edge33" class="edge"><title>&#45;35&#45;&gt;A XOR B</title>
<path fill="none" stroke="red" stroke-width="0.450243" d="M1658.65,-126.298C1654.49,-121.011 1648.44,-114.532 1641.5,-110.953 1567.18,-72.6137 1318.25,-49.931 1213.06,-41.8517"/>
<polygon fill="red" stroke="red" stroke-width="0.450243" points="1213.28,-38.3582 1203.05,-41.0931 1212.75,-45.3383 1213.28,-38.3582"/>
</g>
<!-- &#45;36 -->
<g id="node36" class="node"><title>&#45;36</title>
<polygon fill="lightgray" stroke="black" points="1726,-144.702 1697,-144.702 1697,-126.702 1726,-126.702 1726,-144.702"/>
<text text-anchor="middle" x="1711.5" y="-133.502" font-family="Times,serif" font-size="9.00">&#45;36</text>
</g>
<!-- &#45;36&#45;&gt;A XOR B -->
<g id="edge25" class="edge"><title>&#45;36&#45;&gt;A XOR B</title>
<path fill="none" stroke="red" stroke-width="0.498024" stroke-dasharray="1,5" d="M1705.67,-126.268C1701.52,-120.967 1695.46,-114.485 1688.5,-110.953 1605.56,-68.8705 1325.52,-47.9653 1212.94,-41.1049"/>
<polygon fill="red" stroke="red" stroke-width="0.498024" points="1213.09,-37.6076 1202.9,-40.5033 1212.67,-44.5951 1213.09,-37.6076"/>
</g>
<!-- &#45;37 -->
<g id="node37" class="node"><title>&#45;37</title>
<polygon fill="lightgray" stroke="black" points="1773,-144.702 1744,-144.702 1744,-126.702 1773,-126.702 1773,-144.702"/>
<text text-anchor="middle" x="1758.5" y="-133.502" font-family="Times,serif" font-size="9.00">&#45;37</text>
</g>
<!-- &#45;37&#45;&gt;A XOR B -->
<g id="edge15" class="edge"><title>&#45;37&#45;&gt;A XOR B</title>
<path fill="none" stroke="green" stroke-width="0.302795" stroke-dasharray="1,5" d="M1752.68,-126.242C1748.54,-120.931 1742.48,-114.446 1735.5,-110.953 1644.03,-65.1855 1333.37,-46.2362 1213.36,-40.5071"/>
<polygon fill="green" stroke="green" stroke-width="0.302795" points="1213.18,-36.9949 1203.02,-40.0242 1212.85,-43.9873 1213.18,-36.9949"/>
</g>
<!-- &#45;38 -->
<g id="node38" class="node"><title>&#45;38</title>
<polygon fill="lightgray" stroke="black" points="1820,-144.702 1791,-144.702 1791,-126.702 1820,-126.702 1820,-144.702"/>
<text text-anchor="middle" x="1805.5" y="-133.502" font-family="Times,serif" font-size="9.00">&#45;38</text>
</g>
<!-- &#45;38&#45;&gt;A XOR B -->
<g id="edge6" class="edge"><title>&#45;38&#45;&gt;A XOR B</title>
<path fill="none" stroke="green" stroke-width="0.65207" stroke-dasharray="1,5" d="M1800.05,-126.686C1795.91,-121.283 1789.7,-114.515 1782.5,-110.953 1682.35,-61.4365 1340.2,-44.5982 1213.34,-39.9765"/>
<polygon fill="green" stroke="green" stroke-width="0.65207" points="1213.28,-36.4722 1203.16,-39.6152 1213.03,-43.4678 1213.28,-36.4722"/>
</g>
<!-- &#45;39 -->
<g id="node39" class="node"><title>&#45;39</title>
<polygon fill="lightgray" stroke="black" points="1867,-144.702 1838,-144.702 1838,-126.702 1867,-126.702 1867,-144.702"/>
<text text-anchor="middle" x="1852.5" y="-133.502" font-family="Times,serif" font-size="9.00">&#45;39</text>
</g>
<!-- &#45;39&#45;&gt;A XOR B -->
<g id="edge50" class="edge"><title>&#45;39&#45;&gt;A XOR B</title>
<path fill="none" stroke="green" stroke-width="0.531456" stroke-dasharray="1,5" d="M1847.06,-126.668C1842.92,-121.257 1836.72,-114.485 1829.5,-110.953 1720.61,-57.6693 1346.65,-43.077 1213.25,-39.5182"/>
<polygon fill="green" stroke="green" stroke-width="0.531456" points="1213.04,-36.0117 1202.95,-39.2528 1212.86,-43.0093 1213.04,-36.0117"/>
</g>
<!-- &#45;40 -->
<g id="node40" class="node"><title>&#45;40</title>
<polygon fill="lightgray" stroke="black" points="1914,-144.702 1885,-144.702 1885,-126.702 1914,-126.702 1914,-144.702"/>
<text text-anchor="middle" x="1899.5" y="-133.502" font-family="Times,serif" font-size="9.00">&#45;40</text>
</g>
<!-- &#45;40&#45;&gt;A XOR B -->
<g id="edge39" class="edge"><title>&#45;40&#45;&gt;A XOR B</title>
<path fill="none" stroke="red" stroke-width="0.393257" stroke-dasharray="1,5" d="M1894.07,-126.652C1889.93,-121.233 1883.73,-114.459 1876.5,-110.953 1758.99,-53.9702 1353.95,-41.6943 1213.73,-39.1309"/>
<polygon fill="red" stroke="red" stroke-width="0.393257" points="1213.38,-35.6244 1203.32,-38.9498 1213.26,-42.6233 1213.38,-35.6244"/>
</g>
<!-- &#45;41 -->
<g id="node41" class="node"><title>&#45;41</title>
<polygon fill="lightgray" stroke="black" points="1961,-144.702 1932,-144.702 1932,-126.702 1961,-126.702 1961,-144.702"/>
<text text-anchor="middle" x="1946.5" y="-133.502" font-family="Times,serif" font-size="9.00">&#45;41</text>
</g>
<!-- &#45;41&#45;&gt;A XOR B -->
<g id="edge24" class="edge"><title>&#45;41&#45;&gt;A XOR B</title>
<path fill="none" stroke="green" stroke-width="0.752271" stroke-dasharray="1,5" d="M1941.07,-126.638C1936.94,-121.213 1930.74,-114.437 1923.5,-110.953 1797.11,-50.1533 1359.48,-40.3506 1213.39,-38.7761"/>
<polygon fill="green" stroke="green" stroke-width="0.752271" points="1213.02,-35.2723 1202.98,-38.6727 1212.95,-42.2719 1213.02,-35.2723"/>
</g>
<!-- &#45;42 -->
<g id="node42" class="node"><title>&#45;42</title>
<polygon fill="lightgray" stroke="black" points="2008,-144.702 1979,-144.702 1979,-126.702 2008,-126.702 2008,-144.702"/>
<text text-anchor="middle" x="1993.5" y="-133.502" font-family="Times,serif" font-size="9.00">&#45;42</text>
</g>
<!-- &#45;42&#45;&gt;A XOR B -->
<g id="edge13" class="edge"><title>&#45;42&#45;&gt;A XOR B</title>
<path fill="none" stroke="green" stroke-width="0.581115" stroke-dasharray="1,5" d="M1988.08,-126.626C1983.95,-121.195 1977.75,-114.417 1970.5,-110.953 1835.41,-46.4286 1366.25,-39.1155 1213.78,-38.469"/>
<polygon fill="green" stroke="green" stroke-width="0.581115" points="1213.37,-34.9676 1203.35,-38.4332 1213.34,-41.9676 1213.37,-34.9676"/>
</g>
<!-- &#45;43 -->
<g id="node43" class="node"><title>&#45;43</title>
<polygon fill="lightgray" stroke="black" points="2055,-144.702 2026,-144.702 2026,-126.702 2055,-126.702 2055,-144.702"/>
<text text-anchor="middle" x="2040.5" y="-133.502" font-family="Times,serif" font-size="9.00">&#45;43</text>
</g>
<!-- &#45;43&#45;&gt;A XOR B -->
<g id="edge5" class="edge"><title>&#45;43&#45;&gt;A XOR B</title>
<path fill="none" stroke="green" stroke-width="0.481125" stroke-dasharray="1,5" d="M2035.08,-126.615C2030.96,-121.178 2024.76,-114.399 2017.5,-110.953 1873.45,-42.5863 1371.24,-37.9231 1213.38,-38.1922"/>
<polygon fill="green" stroke="green" stroke-width="0.481125" points="1213.04,-34.6929 1203.05,-38.2178 1213.06,-41.6929 1213.04,-34.6929"/>
</g>
<!-- &#45;44 -->
<g id="node44" class="node"><title>&#45;44</title>
<polygon fill="lightgray" stroke="black" points="2102,-144.702 2073,-144.702 2073,-126.702 2102,-126.702 2102,-144.702"/>
<text text-anchor="middle" x="2087.5" y="-133.502" font-family="Times,serif" font-size="9.00">&#45;44</text>
</g>
<!-- &#45;44&#45;&gt;A XOR B -->
<g id="edge48" class="edge"><title>&#45;44&#45;&gt;A XOR B</title>
<path fill="none" stroke="green" stroke-width="0.61731" stroke-dasharray="1,5" d="M2082.09,-126.605C2077.96,-121.164 2071.77,-114.383 2064.5,-110.953 1911.56,-38.7784 1376.66,-36.8021 1213.27,-37.9461"/>
<polygon fill="green" stroke="green" stroke-width="0.61731" points="1213.02,-34.4478 1203.05,-38.0253 1213.08,-41.4476 1213.02,-34.4478"/>
</g>
<!-- &#45;45 -->
<g id="node45" class="node"><title>&#45;45</title>
<polygon fill="lightgray" stroke="black" points="2149,-144.702 2120,-144.702 2120,-126.702 2149,-126.702 2149,-144.702"/>
<text text-anchor="middle" x="2134.5" y="-133.502" font-family="Times,serif" font-size="9.00">&#45;45</text>
</g>
<!-- &#45;45&#45;&gt;A XOR B -->
<g id="edge38" class="edge"><title>&#45;45&#45;&gt;A XOR B</title>
<path fill="none" stroke="red" stroke-width="0.216333" d="M2129.09,-126.596C2124.97,-121.151 2118.77,-114.368 2111.5,-110.953 2029.77,-72.5825 1394.1,-46.7738 1213.32,-40.1558"/>
<polygon fill="red" stroke="red" stroke-width="0.216333" points="1213.18,-36.6487 1203.06,-39.7832 1212.93,-43.6441 1213.18,-36.6487"/>
</g>
<!-- &#45;46 -->
<g id="node46" class="node"><title>&#45;46</title>
<polygon fill="lightgray" stroke="black" points="2196,-144.702 2167,-144.702 2167,-126.702 2196,-126.702 2196,-144.702"/>
<text text-anchor="middle" x="2181.5" y="-133.502" font-family="Times,serif" font-size="9.00">&#45;46</text>
</g>
<!-- &#45;46&#45;&gt;A XOR B -->
<g id="edge29" class="edge"><title>&#45;46&#45;&gt;A XOR B</title>
<path fill="none" stroke="green" stroke-width="0.447781" d="M2176.1,-126.588C2171.98,-121.139 2165.78,-114.355 2158.5,-110.953 2072.29,-70.6671 1399.63,-46.0605 1213.24,-39.968"/>
<polygon fill="green" stroke="green" stroke-width="0.447781" points="1213.3,-36.4683 1203.2,-39.6423 1213.08,-43.4647 1213.3,-36.4683"/>
</g>
<!-- &#45;47 -->
<g id="node47" class="node"><title>&#45;47</title>
<polygon fill="lightgray" stroke="black" points="2243,-144.702 2214,-144.702 2214,-126.702 2243,-126.702 2243,-144.702"/>
<text text-anchor="middle" x="2228.5" y="-133.502" font-family="Times,serif" font-size="9.00">&#45;47</text>
</g>
<!-- &#45;47&#45;&gt;A XOR B -->
<g id="edge19" class="edge"><title>&#45;47&#45;&gt;A XOR B</title>
<path fill="none" stroke="green" stroke-width="0.290253" d="M2223.1,-126.581C2218.98,-121.128 2212.79,-114.343 2205.5,-110.953 2114.81,-68.7568 1405.27,-45.3925 1213.27,-39.8004"/>
<polygon fill="green" stroke="green" stroke-width="0.290253" points="1213.3,-36.3 1203.2,-39.5098 1213.1,-43.2971 1213.3,-36.3"/>
</g>
<!-- &#45;48 -->
<g id="node48" class="node"><title>&#45;48</title>
<polygon fill="lightgray" stroke="black" points="2290,-144.702 2261,-144.702 2261,-126.702 2290,-126.702 2290,-144.702"/>
<text text-anchor="middle" x="2275.5" y="-133.502" font-family="Times,serif" font-size="9.00">&#45;48</text>
</g>
<!-- &#45;48&#45;&gt;A XOR B -->
<g id="edge10" class="edge"><title>&#45;48&#45;&gt;A XOR B</title>
<path fill="none" stroke="green" stroke-width="0.107184" stroke-dasharray="1,5" d="M2270.1,-126.574C2265.99,-121.118 2259.79,-114.332 2252.5,-110.953 2157.3,-66.8327 1410.41,-44.7443 1213.14,-39.6432"/>
<polygon fill="green" stroke="green" stroke-width="0.107184" points="1213.18,-36.143 1203.09,-39.3856 1213,-43.1407 1213.18,-36.143"/>
</g>
<!-- &#45;49 -->
<g id="node49" class="node"><title>&#45;49</title>
<polygon fill="lightgray" stroke="black" points="2337,-144.702 2308,-144.702 2308,-126.702 2337,-126.702 2337,-144.702"/>
<text text-anchor="middle" x="2322.5" y="-133.502" font-family="Times,serif" font-size="9.00">&#45;49</text>
</g>
<!-- &#45;49&#45;&gt;A XOR B -->
<g id="edge46" class="edge"><title>&#45;49&#45;&gt;A XOR B</title>
<path fill="none" stroke="green" stroke-width="0.480916" d="M2317.11,-126.568C2312.99,-121.109 2306.8,-114.322 2299.5,-110.953 2199.82,-64.9201 1415.89,-44.1392 1213.2,-39.5036"/>
<polygon fill="green" stroke="green" stroke-width="0.480916" points="1213.24,-36.0037 1203.16,-39.2764 1213.08,-43.0019 1213.24,-36.0037"/>
</g>
<!-- &#45;50 -->
<g id="node50" class="node"><title>&#45;50</title>
<polygon fill="lightgray" stroke="black" points="2384,-144.702 2355,-144.702 2355,-126.702 2384,-126.702 2384,-144.702"/>
<text text-anchor="middle" x="2369.5" y="-133.502" font-family="Times,serif" font-size="9.00">&#45;50</text>
</g>
<!-- &#45;50&#45;&gt;A XOR B -->
<g id="edge36" class="edge"><title>&#45;50&#45;&gt;A XOR B</title>
<path fill="none" stroke="green" stroke-width="0.133531" d="M2364.11,-126.562C2359.99,-121.101 2353.8,-114.313 2346.5,-110.953 2242.35,-63.0195 1421.74,-43.5708 1213.44,-39.3785"/>
<polygon fill="green" stroke="green" stroke-width="0.133531" points="1213.21,-35.8732 1203.14,-39.1736 1213.07,-42.8718 1213.21,-35.8732"/>
</g>
<!-- 1320&#45;&gt;A XOR B -->
<g id="edge20" class="edge"><title>1320&#45;&gt;A XOR B</title>
<path fill="none" stroke="green" stroke-width="0.443539" d="M375.289,-120.281C381.201,-116.643 387.879,-113.15 394.5,-110.953 530.018,-65.9919 971.412,-45.7465 1117.82,-40.1548"/>
<polygon fill="green" stroke="green" stroke-width="0.443539" points="1117.99,-43.6512 1127.85,-39.7774 1117.72,-36.6562 1117.99,-43.6512"/>
</g>
<!-- 484&#45;&gt;A XOR B -->
<g id="edge43" class="edge"><title>484&#45;&gt;A XOR B</title>
<path fill="none" stroke="red" stroke-width="0.350886" d="M1547.19,-121.659C1541.55,-117.697 1535,-113.677 1528.5,-110.953 1421.16,-65.9955 1284.03,-48.3756 1212.98,-41.9135"/>
<polygon fill="red" stroke="red" stroke-width="0.350886" points="1213.25,-38.4242 1202.98,-41.0391 1212.64,-45.3976 1213.25,-38.4242"/>
</g>
</g>
</svg>
