<?xml version="1.0" encoding="UTF-8" standalone="no"?>
<!DOCTYPE svg PUBLIC "-//W3C//DTD SVG 1.1//EN"
 "http://www.w3.org/Graphics/SVG/1.1/DTD/svg11.dtd">
<!-- Generated by graphviz version 2.38.0 (20140413.2041)
 -->
<!-- Title: %3 Pages: 1 -->
<svg width="236pt" height="452pt"
 viewBox="0.00 0.00 235.79 452.07" xmlns="http://www.w3.org/2000/svg" xmlns:xlink="http://www.w3.org/1999/xlink">
<g id="graph0" class="graph" transform="scale(1 1) rotate(0) translate(4 448.073)">
<title>%3</title>
<polygon fill="white" stroke="none" points="-4,4 -4,-448.073 231.793,-448.073 231.793,4 -4,4"/>
<!-- A -->
<g id="node1" class="node"><title>A</title>
<polygon fill="lightgray" stroke="black" points="36.5,-444.073 13.5,-444.073 13.5,-426.073 36.5,-426.073 36.5,-444.073"/>
<text text-anchor="middle" x="25" y="-432.873" font-family="Times,serif" font-size="9.00">A</text>
</g>
<!-- A XOR B -->
<g id="node3" class="node"><title>A XOR B</title>
<ellipse fill="lightblue" stroke="black" cx="38" cy="-37.4767" rx="37.4533" ry="37.4533"/>
<text text-anchor="middle" x="38" y="-35.2767" font-family="Times,serif" font-size="9.00">A XOR B</text>
</g>
<!-- A&#45;&gt;A XOR B -->
<g id="edge3" class="edge"><title>A&#45;&gt;A XOR B</title>
<path fill="none" stroke="red" stroke-width="0.306107" d="M22.6929,-426.038C16.5039,-403.749 0,-339.173 0,-284.362 0,-284.362 0,-284.362 0,-210.3 0,-166.227 12.0669,-117.263 22.6009,-82.9161"/>
<polygon fill="red" stroke="red" stroke-width="0.306107" points="25.9981,-83.7802 25.6625,-73.1906 19.3212,-81.6782 25.9981,-83.7802"/>
</g>
<!-- 336 -->
<g id="node9" class="node"><title>336</title>
<ellipse fill="white" stroke="black" cx="49" cy="-365.324" rx="21.4286" ry="21.4286"/>
<text text-anchor="middle" x="49" y="-363.124" font-family="Times,serif" font-size="9.00">336</text>
</g>
<!-- A&#45;&gt;336 -->
<g id="edge10" class="edge"><title>A&#45;&gt;336</title>
<path fill="none" stroke="green" stroke-width="0.86133" d="M27.8474,-426.035C30.5556,-418.391 34.795,-406.423 38.7696,-395.203"/>
<polygon fill="green" stroke="green" stroke-width="0.86133" points="42.109,-396.258 42.1492,-385.663 35.5108,-393.921 42.109,-396.258"/>
</g>
<!-- B -->
<g id="node2" class="node"><title>B</title>
<polygon fill="lightgray" stroke="black" points="152.5,-444.073 129.5,-444.073 129.5,-426.073 152.5,-426.073 152.5,-444.073"/>
<text text-anchor="middle" x="141" y="-432.873" font-family="Times,serif" font-size="9.00">B</text>
</g>
<!-- 865 -->
<g id="node4" class="node"><title>865</title>
<ellipse fill="white" stroke="black" cx="109" cy="-365.324" rx="21.4286" ry="21.4286"/>
<text text-anchor="middle" x="109" y="-363.124" font-family="Times,serif" font-size="9.00">865</text>
</g>
<!-- B&#45;&gt;865 -->
<g id="edge1" class="edge"><title>B&#45;&gt;865</title>
<path fill="none" stroke="red" stroke-width="0.524121" d="M137.204,-426.035C133.479,-418.149 127.581,-405.663 122.139,-394.142"/>
<polygon fill="red" stroke="red" stroke-width="0.524121" points="125.169,-392.362 117.734,-384.815 118.84,-395.352 125.169,-392.362"/>
</g>
<!-- 1195 -->
<g id="node8" class="node"><title>1195</title>
<ellipse fill="white" stroke="black" cx="173" cy="-365.324" rx="25" ry="25"/>
<text text-anchor="middle" x="173" y="-363.124" font-family="Times,serif" font-size="9.00">1195</text>
</g>
<!-- B&#45;&gt;1195 -->
<g id="edge8" class="edge"><title>B&#45;&gt;1195</title>
<path fill="none" stroke="green" stroke-width="0.423643" d="M144.796,-426.035C148.203,-418.824 153.425,-407.767 158.454,-397.119"/>
<polygon fill="green" stroke="green" stroke-width="0.423643" points="161.668,-398.511 162.774,-387.974 155.338,-395.522 161.668,-398.511"/>
</g>
<!-- B&#45;&gt;336 -->
<g id="edge4" class="edge"><title>B&#45;&gt;336</title>
<path fill="none" stroke="green" stroke-width="0.749941" d="M129.443,-426.141C116.892,-417.465 96.3184,-403.059 79,-390.073 77.1432,-388.681 75.2345,-387.226 73.3225,-385.752"/>
<polygon fill="green" stroke="green" stroke-width="0.749941" points="75.1047,-382.703 65.0713,-379.299 70.7924,-388.217 75.1047,-382.703"/>
</g>
<!-- 762 -->
<g id="node10" class="node"><title>762</title>
<ellipse fill="white" stroke="black" cx="152" cy="-37.4767" rx="21.4286" ry="21.4286"/>
<text text-anchor="middle" x="152" y="-35.2767" font-family="Times,serif" font-size="9.00">762</text>
</g>
<!-- B&#45;&gt;762 -->
<g id="edge2" class="edge"><title>B&#45;&gt;762</title>
<path fill="none" stroke="red" stroke-width="0.221541" d="M152.673,-429.699C167.796,-423.388 193.786,-410.227 207,-390.073 233.173,-350.153 226,-332.098 226,-284.362 226,-284.362 226,-284.362 226,-210.3 226,-154.189 192.3,-95.5609 170.384,-63.3656"/>
<polygon fill="red" stroke="red" stroke-width="0.221541" points="173.146,-61.2075 164.553,-55.01 167.406,-65.2135 173.146,-61.2075"/>
</g>
<!-- 683 -->
<g id="node7" class="node"><title>683</title>
<ellipse fill="white" stroke="black" cx="125" cy="-283.362" rx="21.4286" ry="21.4286"/>
<text text-anchor="middle" x="125" y="-281.162" font-family="Times,serif" font-size="9.00">683</text>
</g>
<!-- 865&#45;&gt;683 -->
<g id="edge14" class="edge"><title>865&#45;&gt;683</title>
<path fill="none" stroke="red" stroke-width="0.121934" d="M113.037,-344.147C114.851,-335.081 117.029,-324.199 119.026,-314.218"/>
<polygon fill="red" stroke="red" stroke-width="0.121934" points="122.489,-314.749 121.019,-304.257 115.625,-313.376 122.489,-314.749"/>
</g>
<!-- 2 -->
<g id="node5" class="node"><title>2</title>
<ellipse fill="white" stroke="black" cx="116" cy="-211.3" rx="14.7" ry="14.7"/>
<text text-anchor="middle" x="116" y="-209.1" font-family="Times,serif" font-size="9.00">2</text>
</g>
<!-- 1258 -->
<g id="node6" class="node"><title>1258</title>
<ellipse fill="white" stroke="black" cx="99" cy="-135.702" rx="25" ry="25"/>
<text text-anchor="middle" x="99" y="-133.502" font-family="Times,serif" font-size="9.00">1258</text>
</g>
<!-- 2&#45;&gt;1258 -->
<g id="edge7" class="edge"><title>2&#45;&gt;1258</title>
<path fill="none" stroke="green" stroke-width="0.475997" d="M112.802,-196.457C111.065,-188.934 108.835,-179.281 106.677,-169.937"/>
<polygon fill="green" stroke="green" stroke-width="0.475997" points="110.05,-168.99 104.389,-160.035 103.23,-170.566 110.05,-168.99"/>
</g>
<!-- 2&#45;&gt;762 -->
<g id="edge16" class="edge"><title>2&#45;&gt;762</title>
<path fill="none" stroke="red" stroke-width="0.219762" d="M121.263,-196.948C125.003,-187.017 129.894,-173.058 133,-160.451 140.548,-129.817 145.698,-94.0796 148.712,-69.2389"/>
<polygon fill="red" stroke="red" stroke-width="0.219762" points="152.227,-69.3173 149.911,-58.9787 145.274,-68.5051 152.227,-69.3173"/>
</g>
<!-- 1258&#45;&gt;A XOR B -->
<g id="edge13" class="edge"><title>1258&#45;&gt;A XOR B</title>
<path fill="none" stroke="green" stroke-width="0.404334" d="M86.0635,-114.295C79.3575,-103.717 70.9331,-90.4275 63.018,-77.9417"/>
<polygon fill="green" stroke="green" stroke-width="0.404334" points="65.9573,-76.0412 57.6471,-69.4692 60.0451,-79.7891 65.9573,-76.0412"/>
</g>
<!-- 1258&#45;&gt;762 -->
<g id="edge11" class="edge"><title>1258&#45;&gt;762</title>
<path fill="none" stroke="red" stroke-width="0.180033" d="M110.762,-113.347C118.541,-99.224 128.803,-80.5917 137.145,-65.4476"/>
<polygon fill="red" stroke="red" stroke-width="0.180033" points="140.292,-66.9885 142.051,-56.5406 134.16,-63.6113 140.292,-66.9885"/>
</g>
<!-- 683&#45;&gt;2 -->
<g id="edge5" class="edge"><title>683&#45;&gt;2</title>
<path fill="none" stroke="red" stroke-width="0.518469" d="M122.397,-262.098C121.36,-254.027 120.159,-244.677 119.08,-236.273"/>
<polygon fill="red" stroke="red" stroke-width="0.518469" points="122.544,-235.774 117.799,-226.302 115.601,-236.666 122.544,-235.774"/>
</g>
<!-- 1195&#45;&gt;683 -->
<g id="edge12" class="edge"><title>1195&#45;&gt;683</title>
<path fill="none" stroke="green" stroke-width="0.261192" d="M160.639,-343.732C154.562,-333.61 147.173,-321.3 140.701,-310.519"/>
<polygon fill="green" stroke="green" stroke-width="0.261192" points="143.678,-308.677 135.53,-301.904 137.676,-312.28 143.678,-308.677"/>
</g>
<!-- 336&#45;&gt;A XOR B -->
<g id="edge9" class="edge"><title>336&#45;&gt;A XOR B</title>
<path fill="none" stroke="green" stroke-width="0.604911" d="M48.3119,-343.941C46.5815,-292.681 42.0135,-157.366 39.5794,-85.2611"/>
<polygon fill="green" stroke="green" stroke-width="0.604911" points="43.0718,-84.9751 39.2363,-75.0989 36.0758,-85.2114 43.0718,-84.9751"/>
</g>
<!-- 336&#45;&gt;2 -->
<g id="edge6" class="edge"><title>336&#45;&gt;2</title>
<path fill="none" stroke="green" stroke-width="0.227049" d="M57.2155,-345.683C69.5849,-317.617 92.9495,-264.602 106.193,-234.552"/>
<polygon fill="green" stroke="green" stroke-width="0.227049" points="109.436,-235.873 110.266,-225.311 103.03,-233.05 109.436,-235.873"/>
</g>
<!-- 336&#45;&gt;683 -->
<g id="edge15" class="edge"><title>336&#45;&gt;683</title>
<path fill="none" stroke="green" stroke-width="0.305098" stroke-dasharray="1,5" d="M63.295,-349.284C74.6534,-337.334 90.7164,-320.433 103.606,-306.872"/>
<polygon fill="green" stroke="green" stroke-width="0.305098" points="106.417,-308.995 110.769,-299.335 101.343,-304.172 106.417,-308.995"/>
</g>
</g>
</svg>
