<?xml version="1.0" encoding="utf-8" standalone="no"?>
<!DOCTYPE svg PUBLIC "-//W3C//DTD SVG 1.1//EN"
  "http://www.w3.org/Graphics/SVG/1.1/DTD/svg11.dtd">
<!-- Created with matplotlib (http://matplotlib.org/) -->
<svg height="345pt" version="1.1" viewBox="0 0 460 345" width="460pt" xmlns="http://www.w3.org/2000/svg" xmlns:xlink="http://www.w3.org/1999/xlink">
 <defs>
  <style type="text/css">
*{stroke-linecap:butt;stroke-linejoin:round;}
  </style>
 </defs>
 <g id="figure_1">
  <g id="patch_1">
   <path d="M 0 345.6 
L 460.8 345.6 
L 460.8 0 
L 0 0 
z
" style="fill:#ffffff;"/>
  </g>
  <g id="axes_1">
   <g id="patch_2">
    <path d="M 57.6 307.584 
L 414.72 307.584 
L 414.72 41.472 
L 57.6 41.472 
z
" style="fill:#ffffff;"/>
   </g>
   <g id="PolyCollection_1">
    <path clip-path="url(#p861a20e1b7)" d="M 73.832727 57.478737 
L 73.832727 307.584 
L 77.890909 307.584 
L 81.949091 307.584 
L 86.007273 307.584 
L 90.065455 307.584 
L 94.123636 307.584 
L 98.181818 307.584 
L 102.24 307.584 
L 106.298182 307.584 
L 110.356364 307.584 
L 114.414545 307.584 
L 118.472727 307.584 
L 122.530909 307.584 
L 126.589091 307.584 
L 130.647273 307.584 
L 134.705455 307.584 
L 138.763636 307.584 
L 142.821818 307.584 
L 146.88 307.584 
L 150.938182 307.584 
L 154.996364 307.584 
L 159.054545 307.584 
L 163.112727 307.584 
L 167.170909 307.584 
L 171.229091 307.584 
L 175.287273 307.584 
L 179.345455 307.584 
L 183.403636 307.584 
L 187.461818 307.584 
L 191.52 307.584 
L 195.578182 307.584 
L 199.636364 307.584 
L 203.694545 307.584 
L 207.752727 307.584 
L 211.810909 307.584 
L 215.869091 307.584 
L 219.927273 307.584 
L 223.985455 307.584 
L 228.043636 307.584 
L 232.101818 307.584 
L 236.16 307.584 
L 240.218182 307.584 
L 244.276364 307.584 
L 248.334545 307.584 
L 252.392727 307.584 
L 256.450909 307.584 
L 260.509091 307.584 
L 264.567273 307.584 
L 268.625455 307.584 
L 272.683636 307.584 
L 276.741818 307.584 
L 280.8 307.584 
L 284.858182 307.584 
L 288.916364 307.584 
L 292.974545 307.584 
L 297.032727 307.584 
L 301.090909 307.584 
L 305.149091 307.584 
L 309.207273 307.584 
L 313.265455 307.584 
L 317.323636 307.584 
L 321.381818 307.584 
L 325.44 307.584 
L 329.498182 307.584 
L 333.556364 307.584 
L 337.614545 307.584 
L 341.672727 307.584 
L 345.730909 307.584 
L 349.789091 307.584 
L 353.847273 307.584 
L 357.905455 307.584 
L 361.963636 307.584 
L 366.021818 307.584 
L 370.08 307.584 
L 374.138182 307.584 
L 378.196364 307.584 
L 382.254545 307.584 
L 386.312727 307.584 
L 390.370909 307.584 
L 394.429091 307.584 
L 398.487273 307.584 
L 398.487273 307.584 
L 398.487273 307.584 
L 394.429091 307.584 
L 390.370909 307.584 
L 386.312727 307.584 
L 382.254545 307.584 
L 378.196364 307.584 
L 374.138182 307.584 
L 370.08 307.584 
L 366.021818 307.584 
L 361.963636 307.584 
L 357.905455 307.584 
L 353.847273 307.584 
L 349.789091 307.584 
L 345.730909 307.584 
L 341.672727 307.584 
L 337.614545 307.584 
L 333.556364 307.584 
L 329.498182 307.584 
L 325.44 307.584 
L 321.381818 307.584 
L 317.323636 307.584 
L 313.265455 307.584 
L 309.207273 307.584 
L 305.149091 307.584 
L 301.090909 307.584 
L 297.032727 307.584 
L 292.974545 307.584 
L 288.916364 265.899789 
L 284.858182 289.242947 
L 280.8 265.899789 
L 276.741818 255.895579 
L 272.683636 254.228211 
L 268.625455 259.230316 
L 264.567273 247.558737 
L 260.509091 282.573474 
L 256.450909 269.234526 
L 252.392727 252.560842 
L 248.334545 249.226105 
L 244.276364 255.895579 
L 240.218182 230.885053 
L 236.16 235.887158 
L 232.101818 237.554526 
L 228.043636 230.885053 
L 223.985455 224.215579 
L 219.927273 230.885053 
L 215.869091 232.552421 
L 211.810909 227.550316 
L 207.752727 220.880842 
L 203.694545 229.217684 
L 199.636364 220.880842 
L 195.578182 217.546105 
L 191.52 205.874526 
L 187.461818 207.541895 
L 183.403636 210.876632 
L 179.345455 209.209263 
L 175.287273 205.874526 
L 171.229091 199.205053 
L 167.170909 179.196632 
L 163.112727 170.859789 
L 159.054545 167.525053 
L 154.996364 175.861895 
L 150.938182 187.533474 
L 146.88 162.522947 
L 142.821818 164.190316 
L 138.763636 167.525053 
L 134.705455 170.859789 
L 130.647273 165.857684 
L 126.589091 177.529263 
L 122.530909 199.205053 
L 118.472727 135.845053 
L 114.414545 130.842947 
L 110.356364 109.167158 
L 106.298182 95.828211 
L 102.24 69.150316 
L 98.181818 57.478737 
L 94.123636 57.478737 
L 90.065455 57.478737 
L 86.007273 57.478737 
L 81.949091 57.478737 
L 77.890909 57.478737 
L 73.832727 57.478737 
z
" style="fill:#1f77b4;"/>
   </g>
   <g id="PolyCollection_2">
    <path clip-path="url(#p861a20e1b7)" d="M 73.832727 57.478737 
L 73.832727 57.478737 
L 77.890909 57.478737 
L 81.949091 57.478737 
L 86.007273 57.478737 
L 90.065455 57.478737 
L 94.123636 57.478737 
L 98.181818 57.478737 
L 102.24 69.150316 
L 106.298182 95.828211 
L 110.356364 109.167158 
L 114.414545 130.842947 
L 118.472727 135.845053 
L 122.530909 199.205053 
L 126.589091 177.529263 
L 130.647273 165.857684 
L 134.705455 170.859789 
L 138.763636 167.525053 
L 142.821818 164.190316 
L 146.88 162.522947 
L 150.938182 187.533474 
L 154.996364 175.861895 
L 159.054545 167.525053 
L 163.112727 170.859789 
L 167.170909 179.196632 
L 171.229091 199.205053 
L 175.287273 205.874526 
L 179.345455 209.209263 
L 183.403636 210.876632 
L 187.461818 207.541895 
L 191.52 205.874526 
L 195.578182 217.546105 
L 199.636364 220.880842 
L 203.694545 229.217684 
L 207.752727 220.880842 
L 211.810909 227.550316 
L 215.869091 232.552421 
L 219.927273 230.885053 
L 223.985455 224.215579 
L 228.043636 230.885053 
L 232.101818 237.554526 
L 236.16 235.887158 
L 240.218182 230.885053 
L 244.276364 255.895579 
L 248.334545 249.226105 
L 252.392727 252.560842 
L 256.450909 269.234526 
L 260.509091 282.573474 
L 264.567273 247.558737 
L 268.625455 259.230316 
L 272.683636 254.228211 
L 276.741818 255.895579 
L 280.8 265.899789 
L 284.858182 289.242947 
L 288.916364 265.899789 
L 292.974545 307.584 
L 297.032727 307.584 
L 301.090909 307.584 
L 305.149091 307.584 
L 309.207273 307.584 
L 313.265455 307.584 
L 317.323636 307.584 
L 321.381818 307.584 
L 325.44 307.584 
L 329.498182 307.584 
L 333.556364 307.584 
L 337.614545 307.584 
L 341.672727 307.584 
L 345.730909 307.584 
L 349.789091 307.584 
L 353.847273 307.584 
L 357.905455 307.584 
L 361.963636 307.584 
L 366.021818 307.584 
L 370.08 307.584 
L 374.138182 307.584 
L 378.196364 307.584 
L 382.254545 307.584 
L 386.312727 307.584 
L 390.370909 307.584 
L 394.429091 307.584 
L 398.487273 307.584 
L 398.487273 307.584 
L 398.487273 307.584 
L 394.429091 307.584 
L 390.370909 307.584 
L 386.312727 307.584 
L 382.254545 307.584 
L 378.196364 307.584 
L 374.138182 307.584 
L 370.08 307.584 
L 366.021818 275.904 
L 361.963636 274.236632 
L 357.905455 270.901895 
L 353.847273 269.234526 
L 349.789091 274.236632 
L 345.730909 270.901895 
L 341.672727 275.904 
L 337.614545 272.569263 
L 333.556364 274.236632 
L 329.498182 277.571368 
L 325.44 274.236632 
L 321.381818 272.569263 
L 317.323636 272.569263 
L 313.265455 275.904 
L 309.207273 274.236632 
L 305.149091 272.569263 
L 301.090909 275.904 
L 297.032727 274.236632 
L 292.974545 270.901895 
L 288.916364 222.548211 
L 284.858182 250.893474 
L 280.8 220.880842 
L 276.741818 212.544 
L 272.683636 202.539789 
L 268.625455 215.878737 
L 264.567273 187.533474 
L 260.509091 235.887158 
L 256.450909 220.880842 
L 252.392727 209.209263 
L 248.334545 165.857684 
L 244.276364 174.194526 
L 240.218182 154.186105 
L 236.16 165.857684 
L 232.101818 164.190316 
L 228.043636 169.192421 
L 223.985455 159.188211 
L 219.927273 152.518737 
L 215.869091 172.527158 
L 211.810909 154.186105 
L 207.752727 135.845053 
L 203.694545 140.847158 
L 199.636364 145.849263 
L 195.578182 134.177684 
L 191.52 129.175579 
L 187.461818 142.514526 
L 183.403636 139.179789 
L 179.345455 137.512421 
L 175.287273 129.175579 
L 171.229091 137.512421 
L 167.170909 67.482947 
L 163.112727 57.478737 
L 159.054545 57.478737 
L 154.996364 57.478737 
L 150.938182 57.478737 
L 146.88 57.478737 
L 142.821818 57.478737 
L 138.763636 57.478737 
L 134.705455 57.478737 
L 130.647273 57.478737 
L 126.589091 57.478737 
L 122.530909 57.478737 
L 118.472727 57.478737 
L 114.414545 57.478737 
L 110.356364 57.478737 
L 106.298182 57.478737 
L 102.24 57.478737 
L 98.181818 57.478737 
L 94.123636 57.478737 
L 90.065455 57.478737 
L 86.007273 57.478737 
L 81.949091 57.478737 
L 77.890909 57.478737 
L 73.832727 57.478737 
z
" style="fill:#ff7f0e;"/>
   </g>
   <g id="PolyCollection_3">
    <path clip-path="url(#p861a20e1b7)" d="M 73.832727 57.478737 
L 73.832727 57.478737 
L 77.890909 57.478737 
L 81.949091 57.478737 
L 86.007273 57.478737 
L 90.065455 57.478737 
L 94.123636 57.478737 
L 98.181818 57.478737 
L 102.24 57.478737 
L 106.298182 57.478737 
L 110.356364 57.478737 
L 114.414545 57.478737 
L 118.472727 57.478737 
L 122.530909 57.478737 
L 126.589091 57.478737 
L 130.647273 57.478737 
L 134.705455 57.478737 
L 138.763636 57.478737 
L 142.821818 57.478737 
L 146.88 57.478737 
L 150.938182 57.478737 
L 154.996364 57.478737 
L 159.054545 57.478737 
L 163.112727 57.478737 
L 167.170909 67.482947 
L 171.229091 137.512421 
L 175.287273 129.175579 
L 179.345455 137.512421 
L 183.403636 139.179789 
L 187.461818 142.514526 
L 191.52 129.175579 
L 195.578182 134.177684 
L 199.636364 145.849263 
L 203.694545 140.847158 
L 207.752727 135.845053 
L 211.810909 154.186105 
L 215.869091 172.527158 
L 219.927273 152.518737 
L 223.985455 159.188211 
L 228.043636 169.192421 
L 232.101818 164.190316 
L 236.16 165.857684 
L 240.218182 154.186105 
L 244.276364 174.194526 
L 248.334545 165.857684 
L 252.392727 209.209263 
L 256.450909 220.880842 
L 260.509091 235.887158 
L 264.567273 187.533474 
L 268.625455 215.878737 
L 272.683636 202.539789 
L 276.741818 212.544 
L 280.8 220.880842 
L 284.858182 250.893474 
L 288.916364 222.548211 
L 292.974545 270.901895 
L 297.032727 274.236632 
L 301.090909 275.904 
L 305.149091 272.569263 
L 309.207273 274.236632 
L 313.265455 275.904 
L 317.323636 272.569263 
L 321.381818 272.569263 
L 325.44 274.236632 
L 329.498182 277.571368 
L 333.556364 274.236632 
L 337.614545 272.569263 
L 341.672727 275.904 
L 345.730909 270.901895 
L 349.789091 274.236632 
L 353.847273 269.234526 
L 357.905455 270.901895 
L 361.963636 274.236632 
L 366.021818 275.904 
L 370.08 307.584 
L 374.138182 307.584 
L 378.196364 307.584 
L 382.254545 307.584 
L 386.312727 307.584 
L 390.370909 307.584 
L 394.429091 307.584 
L 398.487273 307.584 
L 398.487273 265.899789 
L 398.487273 265.899789 
L 394.429091 264.232421 
L 390.370909 265.899789 
L 386.312727 265.899789 
L 382.254545 255.895579 
L 378.196364 257.562947 
L 374.138182 254.228211 
L 370.08 254.228211 
L 366.021818 229.217684 
L 361.963636 227.550316 
L 357.905455 222.548211 
L 353.847273 222.548211 
L 349.789091 225.882947 
L 345.730909 225.882947 
L 341.672727 235.887158 
L 337.614545 234.219789 
L 333.556364 232.552421 
L 329.498182 240.889263 
L 325.44 235.887158 
L 321.381818 230.885053 
L 317.323636 235.887158 
L 313.265455 240.889263 
L 309.207273 237.554526 
L 305.149091 230.885053 
L 301.090909 232.552421 
L 297.032727 229.217684 
L 292.974545 227.550316 
L 288.916364 180.864 
L 284.858182 200.872421 
L 280.8 159.188211 
L 276.741818 147.516632 
L 272.683636 137.512421 
L 268.625455 159.188211 
L 264.567273 110.834526 
L 260.509091 167.525053 
L 256.450909 139.179789 
L 252.392727 105.832421 
L 248.334545 69.150316 
L 244.276364 57.478737 
L 240.218182 57.478737 
L 236.16 59.146105 
L 232.101818 57.478737 
L 228.043636 55.811368 
L 223.985455 57.478737 
L 219.927273 57.478737 
L 215.869091 57.478737 
L 211.810909 59.146105 
L 207.752727 57.478737 
L 203.694545 59.146105 
L 199.636364 59.146105 
L 195.578182 55.811368 
L 191.52 57.478737 
L 187.461818 57.478737 
L 183.403636 55.811368 
L 179.345455 59.146105 
L 175.287273 59.146105 
L 171.229091 57.478737 
L 167.170909 57.478737 
L 163.112727 57.478737 
L 159.054545 57.478737 
L 154.996364 57.478737 
L 150.938182 57.478737 
L 146.88 57.478737 
L 142.821818 57.478737 
L 138.763636 57.478737 
L 134.705455 57.478737 
L 130.647273 57.478737 
L 126.589091 57.478737 
L 122.530909 57.478737 
L 118.472727 57.478737 
L 114.414545 57.478737 
L 110.356364 57.478737 
L 106.298182 57.478737 
L 102.24 57.478737 
L 98.181818 57.478737 
L 94.123636 57.478737 
L 90.065455 57.478737 
L 86.007273 57.478737 
L 81.949091 57.478737 
L 77.890909 57.478737 
L 73.832727 57.478737 
z
" style="fill:#2ca02c;"/>
   </g>
   <g id="PolyCollection_4">
    <path clip-path="url(#p861a20e1b7)" d="M 73.832727 57.478737 
L 73.832727 57.478737 
L 77.890909 57.478737 
L 81.949091 57.478737 
L 86.007273 57.478737 
L 90.065455 57.478737 
L 94.123636 57.478737 
L 98.181818 57.478737 
L 102.24 57.478737 
L 106.298182 57.478737 
L 110.356364 57.478737 
L 114.414545 57.478737 
L 118.472727 57.478737 
L 122.530909 57.478737 
L 126.589091 57.478737 
L 130.647273 57.478737 
L 134.705455 57.478737 
L 138.763636 57.478737 
L 142.821818 57.478737 
L 146.88 57.478737 
L 150.938182 57.478737 
L 154.996364 57.478737 
L 159.054545 57.478737 
L 163.112727 57.478737 
L 167.170909 57.478737 
L 171.229091 57.478737 
L 175.287273 59.146105 
L 179.345455 59.146105 
L 183.403636 55.811368 
L 187.461818 57.478737 
L 191.52 57.478737 
L 195.578182 55.811368 
L 199.636364 59.146105 
L 203.694545 59.146105 
L 207.752727 57.478737 
L 211.810909 59.146105 
L 215.869091 57.478737 
L 219.927273 57.478737 
L 223.985455 57.478737 
L 228.043636 55.811368 
L 232.101818 57.478737 
L 236.16 59.146105 
L 240.218182 57.478737 
L 244.276364 57.478737 
L 248.334545 69.150316 
L 252.392727 105.832421 
L 256.450909 139.179789 
L 260.509091 167.525053 
L 264.567273 110.834526 
L 268.625455 159.188211 
L 272.683636 137.512421 
L 276.741818 147.516632 
L 280.8 159.188211 
L 284.858182 200.872421 
L 288.916364 180.864 
L 292.974545 227.550316 
L 297.032727 229.217684 
L 301.090909 232.552421 
L 305.149091 230.885053 
L 309.207273 237.554526 
L 313.265455 240.889263 
L 317.323636 235.887158 
L 321.381818 230.885053 
L 325.44 235.887158 
L 329.498182 240.889263 
L 333.556364 232.552421 
L 337.614545 234.219789 
L 341.672727 235.887158 
L 345.730909 225.882947 
L 349.789091 225.882947 
L 353.847273 222.548211 
L 357.905455 222.548211 
L 361.963636 227.550316 
L 366.021818 229.217684 
L 370.08 254.228211 
L 374.138182 254.228211 
L 378.196364 257.562947 
L 382.254545 255.895579 
L 386.312727 265.899789 
L 390.370909 265.899789 
L 394.429091 264.232421 
L 398.487273 265.899789 
L 398.487273 265.899789 
L 398.487273 265.899789 
L 394.429091 264.232421 
L 390.370909 265.899789 
L 386.312727 265.899789 
L 382.254545 255.895579 
L 378.196364 257.562947 
L 374.138182 254.228211 
L 370.08 254.228211 
L 366.021818 229.217684 
L 361.963636 227.550316 
L 357.905455 222.548211 
L 353.847273 222.548211 
L 349.789091 225.882947 
L 345.730909 225.882947 
L 341.672727 235.887158 
L 337.614545 234.219789 
L 333.556364 232.552421 
L 329.498182 204.207158 
L 325.44 199.205053 
L 321.381818 187.533474 
L 317.323636 197.537684 
L 313.265455 192.535579 
L 309.207273 195.870316 
L 305.149091 179.196632 
L 301.090909 185.866105 
L 297.032727 187.533474 
L 292.974545 194.202947 
L 288.916364 165.857684 
L 284.858182 185.866105 
L 280.8 129.175579 
L 276.741818 97.495579 
L 272.683636 82.489263 
L 268.625455 94.160842 
L 264.567273 64.148211 
L 260.509091 127.508211 
L 256.450909 100.830316 
L 252.392727 79.154526 
L 248.334545 62.480842 
L 244.276364 57.478737 
L 240.218182 57.478737 
L 236.16 59.146105 
L 232.101818 57.478737 
L 228.043636 55.811368 
L 223.985455 57.478737 
L 219.927273 57.478737 
L 215.869091 57.478737 
L 211.810909 59.146105 
L 207.752727 57.478737 
L 203.694545 59.146105 
L 199.636364 59.146105 
L 195.578182 55.811368 
L 191.52 57.478737 
L 187.461818 57.478737 
L 183.403636 55.811368 
L 179.345455 59.146105 
L 175.287273 59.146105 
L 171.229091 57.478737 
L 167.170909 57.478737 
L 163.112727 57.478737 
L 159.054545 57.478737 
L 154.996364 57.478737 
L 150.938182 57.478737 
L 146.88 57.478737 
L 142.821818 57.478737 
L 138.763636 57.478737 
L 134.705455 57.478737 
L 130.647273 57.478737 
L 126.589091 57.478737 
L 122.530909 57.478737 
L 118.472727 57.478737 
L 114.414545 57.478737 
L 110.356364 57.478737 
L 106.298182 57.478737 
L 102.24 57.478737 
L 98.181818 57.478737 
L 94.123636 57.478737 
L 90.065455 57.478737 
L 86.007273 57.478737 
L 81.949091 57.478737 
L 77.890909 57.478737 
L 73.832727 57.478737 
z
" style="fill:#d62728;"/>
   </g>
   <g id="PolyCollection_5">
    <path clip-path="url(#p861a20e1b7)" d="M 73.832727 57.478737 
L 73.832727 57.478737 
L 77.890909 57.478737 
L 81.949091 57.478737 
L 86.007273 57.478737 
L 90.065455 57.478737 
L 94.123636 57.478737 
L 98.181818 57.478737 
L 102.24 57.478737 
L 106.298182 57.478737 
L 110.356364 57.478737 
L 114.414545 57.478737 
L 118.472727 57.478737 
L 122.530909 57.478737 
L 126.589091 57.478737 
L 130.647273 57.478737 
L 134.705455 57.478737 
L 138.763636 57.478737 
L 142.821818 57.478737 
L 146.88 57.478737 
L 150.938182 57.478737 
L 154.996364 57.478737 
L 159.054545 57.478737 
L 163.112727 57.478737 
L 167.170909 57.478737 
L 171.229091 57.478737 
L 175.287273 59.146105 
L 179.345455 59.146105 
L 183.403636 55.811368 
L 187.461818 57.478737 
L 191.52 57.478737 
L 195.578182 55.811368 
L 199.636364 59.146105 
L 203.694545 59.146105 
L 207.752727 57.478737 
L 211.810909 59.146105 
L 215.869091 57.478737 
L 219.927273 57.478737 
L 223.985455 57.478737 
L 228.043636 55.811368 
L 232.101818 57.478737 
L 236.16 59.146105 
L 240.218182 57.478737 
L 244.276364 57.478737 
L 248.334545 62.480842 
L 252.392727 79.154526 
L 256.450909 100.830316 
L 260.509091 127.508211 
L 264.567273 64.148211 
L 268.625455 94.160842 
L 272.683636 82.489263 
L 276.741818 97.495579 
L 280.8 129.175579 
L 284.858182 185.866105 
L 288.916364 165.857684 
L 292.974545 194.202947 
L 297.032727 187.533474 
L 301.090909 185.866105 
L 305.149091 179.196632 
L 309.207273 195.870316 
L 313.265455 192.535579 
L 317.323636 197.537684 
L 321.381818 187.533474 
L 325.44 199.205053 
L 329.498182 204.207158 
L 333.556364 232.552421 
L 337.614545 234.219789 
L 341.672727 235.887158 
L 345.730909 225.882947 
L 349.789091 225.882947 
L 353.847273 222.548211 
L 357.905455 222.548211 
L 361.963636 227.550316 
L 366.021818 229.217684 
L 370.08 254.228211 
L 374.138182 254.228211 
L 378.196364 257.562947 
L 382.254545 255.895579 
L 386.312727 265.899789 
L 390.370909 265.899789 
L 394.429091 264.232421 
L 398.487273 265.899789 
L 398.487273 265.899789 
L 398.487273 265.899789 
L 394.429091 264.232421 
L 390.370909 265.899789 
L 386.312727 265.899789 
L 382.254545 255.895579 
L 378.196364 257.562947 
L 374.138182 254.228211 
L 370.08 254.228211 
L 366.021818 229.217684 
L 361.963636 227.550316 
L 357.905455 222.548211 
L 353.847273 222.548211 
L 349.789091 225.882947 
L 345.730909 225.882947 
L 341.672727 204.207158 
L 337.614545 199.205053 
L 333.556364 189.200842 
L 329.498182 184.198737 
L 325.44 179.196632 
L 321.381818 159.188211 
L 317.323636 170.859789 
L 313.265455 167.525053 
L 309.207273 169.192421 
L 305.149091 152.518737 
L 301.090909 145.849263 
L 297.032727 145.849263 
L 292.974545 149.184 
L 288.916364 134.177684 
L 284.858182 155.853474 
L 280.8 104.165053 
L 276.741818 80.821895 
L 272.683636 75.819789 
L 268.625455 80.821895 
L 264.567273 59.146105 
L 260.509091 55.811368 
L 256.450909 57.478737 
L 252.392727 57.478737 
L 248.334545 59.146105 
L 244.276364 57.478737 
L 240.218182 57.478737 
L 236.16 59.146105 
L 232.101818 57.478737 
L 228.043636 55.811368 
L 223.985455 57.478737 
L 219.927273 57.478737 
L 215.869091 57.478737 
L 211.810909 59.146105 
L 207.752727 57.478737 
L 203.694545 59.146105 
L 199.636364 59.146105 
L 195.578182 55.811368 
L 191.52 57.478737 
L 187.461818 57.478737 
L 183.403636 55.811368 
L 179.345455 59.146105 
L 175.287273 59.146105 
L 171.229091 57.478737 
L 167.170909 57.478737 
L 163.112727 57.478737 
L 159.054545 57.478737 
L 154.996364 57.478737 
L 150.938182 57.478737 
L 146.88 57.478737 
L 142.821818 57.478737 
L 138.763636 57.478737 
L 134.705455 57.478737 
L 130.647273 57.478737 
L 126.589091 57.478737 
L 122.530909 57.478737 
L 118.472727 57.478737 
L 114.414545 57.478737 
L 110.356364 57.478737 
L 106.298182 57.478737 
L 102.24 57.478737 
L 98.181818 57.478737 
L 94.123636 57.478737 
L 90.065455 57.478737 
L 86.007273 57.478737 
L 81.949091 57.478737 
L 77.890909 57.478737 
L 73.832727 57.478737 
z
" style="fill:#9467bd;"/>
   </g>
   <g id="PolyCollection_6">
    <path clip-path="url(#p861a20e1b7)" d="M 73.832727 57.478737 
L 73.832727 57.478737 
L 77.890909 57.478737 
L 81.949091 57.478737 
L 86.007273 57.478737 
L 90.065455 57.478737 
L 94.123636 57.478737 
L 98.181818 57.478737 
L 102.24 57.478737 
L 106.298182 57.478737 
L 110.356364 57.478737 
L 114.414545 57.478737 
L 118.472727 57.478737 
L 122.530909 57.478737 
L 126.589091 57.478737 
L 130.647273 57.478737 
L 134.705455 57.478737 
L 138.763636 57.478737 
L 142.821818 57.478737 
L 146.88 57.478737 
L 150.938182 57.478737 
L 154.996364 57.478737 
L 159.054545 57.478737 
L 163.112727 57.478737 
L 167.170909 57.478737 
L 171.229091 57.478737 
L 175.287273 59.146105 
L 179.345455 59.146105 
L 183.403636 55.811368 
L 187.461818 57.478737 
L 191.52 57.478737 
L 195.578182 55.811368 
L 199.636364 59.146105 
L 203.694545 59.146105 
L 207.752727 57.478737 
L 211.810909 59.146105 
L 215.869091 57.478737 
L 219.927273 57.478737 
L 223.985455 57.478737 
L 228.043636 55.811368 
L 232.101818 57.478737 
L 236.16 59.146105 
L 240.218182 57.478737 
L 244.276364 57.478737 
L 248.334545 59.146105 
L 252.392727 57.478737 
L 256.450909 57.478737 
L 260.509091 55.811368 
L 264.567273 59.146105 
L 268.625455 80.821895 
L 272.683636 75.819789 
L 276.741818 80.821895 
L 280.8 104.165053 
L 284.858182 155.853474 
L 288.916364 134.177684 
L 292.974545 149.184 
L 297.032727 145.849263 
L 301.090909 145.849263 
L 305.149091 152.518737 
L 309.207273 169.192421 
L 313.265455 167.525053 
L 317.323636 170.859789 
L 321.381818 159.188211 
L 325.44 179.196632 
L 329.498182 184.198737 
L 333.556364 189.200842 
L 337.614545 199.205053 
L 341.672727 204.207158 
L 345.730909 225.882947 
L 349.789091 225.882947 
L 353.847273 222.548211 
L 357.905455 222.548211 
L 361.963636 227.550316 
L 366.021818 229.217684 
L 370.08 254.228211 
L 374.138182 254.228211 
L 378.196364 257.562947 
L 382.254545 255.895579 
L 386.312727 265.899789 
L 390.370909 265.899789 
L 394.429091 264.232421 
L 398.487273 265.899789 
L 398.487273 229.217684 
L 398.487273 229.217684 
L 394.429091 225.882947 
L 390.370909 229.217684 
L 386.312727 229.217684 
L 382.254545 230.885053 
L 378.196364 224.215579 
L 374.138182 220.880842 
L 370.08 217.546105 
L 366.021818 189.200842 
L 361.963636 194.202947 
L 357.905455 185.866105 
L 353.847273 182.531368 
L 349.789091 180.864 
L 345.730909 179.196632 
L 341.672727 164.190316 
L 337.614545 160.855579 
L 333.556364 149.184 
L 329.498182 144.181895 
L 325.44 137.512421 
L 321.381818 119.171368 
L 317.323636 132.510316 
L 313.265455 132.510316 
L 309.207273 127.508211 
L 305.149091 115.836632 
L 301.090909 100.830316 
L 297.032727 102.497684 
L 292.974545 104.165053 
L 288.916364 107.499789 
L 284.858182 120.838737 
L 280.8 74.152421 
L 276.741818 55.811368 
L 272.683636 55.811368 
L 268.625455 57.478737 
L 264.567273 57.478737 
L 260.509091 55.811368 
L 256.450909 57.478737 
L 252.392727 57.478737 
L 248.334545 59.146105 
L 244.276364 57.478737 
L 240.218182 57.478737 
L 236.16 59.146105 
L 232.101818 57.478737 
L 228.043636 55.811368 
L 223.985455 57.478737 
L 219.927273 57.478737 
L 215.869091 57.478737 
L 211.810909 59.146105 
L 207.752727 57.478737 
L 203.694545 59.146105 
L 199.636364 59.146105 
L 195.578182 55.811368 
L 191.52 57.478737 
L 187.461818 57.478737 
L 183.403636 55.811368 
L 179.345455 59.146105 
L 175.287273 59.146105 
L 171.229091 57.478737 
L 167.170909 57.478737 
L 163.112727 57.478737 
L 159.054545 57.478737 
L 154.996364 57.478737 
L 150.938182 57.478737 
L 146.88 57.478737 
L 142.821818 57.478737 
L 138.763636 57.478737 
L 134.705455 57.478737 
L 130.647273 57.478737 
L 126.589091 57.478737 
L 122.530909 57.478737 
L 118.472727 57.478737 
L 114.414545 57.478737 
L 110.356364 57.478737 
L 106.298182 57.478737 
L 102.24 57.478737 
L 98.181818 57.478737 
L 94.123636 57.478737 
L 90.065455 57.478737 
L 86.007273 57.478737 
L 81.949091 57.478737 
L 77.890909 57.478737 
L 73.832727 57.478737 
z
" style="fill:#8c564b;"/>
   </g>
   <g id="PolyCollection_7">
    <path clip-path="url(#p861a20e1b7)" d="M 73.832727 57.478737 
L 73.832727 57.478737 
L 77.890909 57.478737 
L 81.949091 57.478737 
L 86.007273 57.478737 
L 90.065455 57.478737 
L 94.123636 57.478737 
L 98.181818 57.478737 
L 102.24 57.478737 
L 106.298182 57.478737 
L 110.356364 57.478737 
L 114.414545 57.478737 
L 118.472727 57.478737 
L 122.530909 57.478737 
L 126.589091 57.478737 
L 130.647273 57.478737 
L 134.705455 57.478737 
L 138.763636 57.478737 
L 142.821818 57.478737 
L 146.88 57.478737 
L 150.938182 57.478737 
L 154.996364 57.478737 
L 159.054545 57.478737 
L 163.112727 57.478737 
L 167.170909 57.478737 
L 171.229091 57.478737 
L 175.287273 59.146105 
L 179.345455 59.146105 
L 183.403636 55.811368 
L 187.461818 57.478737 
L 191.52 57.478737 
L 195.578182 55.811368 
L 199.636364 59.146105 
L 203.694545 59.146105 
L 207.752727 57.478737 
L 211.810909 59.146105 
L 215.869091 57.478737 
L 219.927273 57.478737 
L 223.985455 57.478737 
L 228.043636 55.811368 
L 232.101818 57.478737 
L 236.16 59.146105 
L 240.218182 57.478737 
L 244.276364 57.478737 
L 248.334545 59.146105 
L 252.392727 57.478737 
L 256.450909 57.478737 
L 260.509091 55.811368 
L 264.567273 57.478737 
L 268.625455 57.478737 
L 272.683636 55.811368 
L 276.741818 55.811368 
L 280.8 74.152421 
L 284.858182 120.838737 
L 288.916364 107.499789 
L 292.974545 104.165053 
L 297.032727 102.497684 
L 301.090909 100.830316 
L 305.149091 115.836632 
L 309.207273 127.508211 
L 313.265455 132.510316 
L 317.323636 132.510316 
L 321.381818 119.171368 
L 325.44 137.512421 
L 329.498182 144.181895 
L 333.556364 149.184 
L 337.614545 160.855579 
L 341.672727 164.190316 
L 345.730909 179.196632 
L 349.789091 180.864 
L 353.847273 182.531368 
L 357.905455 185.866105 
L 361.963636 194.202947 
L 366.021818 189.200842 
L 370.08 217.546105 
L 374.138182 220.880842 
L 378.196364 224.215579 
L 382.254545 230.885053 
L 386.312727 229.217684 
L 390.370909 229.217684 
L 394.429091 225.882947 
L 398.487273 229.217684 
L 398.487273 189.200842 
L 398.487273 189.200842 
L 394.429091 182.531368 
L 390.370909 190.868211 
L 386.312727 187.533474 
L 382.254545 190.868211 
L 378.196364 182.531368 
L 374.138182 177.529263 
L 370.08 174.194526 
L 366.021818 145.849263 
L 361.963636 145.849263 
L 357.905455 130.842947 
L 353.847273 132.510316 
L 349.789091 134.177684 
L 345.730909 127.508211 
L 341.672727 119.171368 
L 337.614545 120.838737 
L 333.556364 105.832421 
L 329.498182 110.834526 
L 325.44 100.830316 
L 321.381818 80.821895 
L 317.323636 94.160842 
L 313.265455 89.158737 
L 309.207273 80.821895 
L 305.149091 77.487158 
L 301.090909 60.813474 
L 297.032727 59.146105 
L 292.974545 59.146105 
L 288.916364 57.478737 
L 284.858182 55.811368 
L 280.8 55.811368 
L 276.741818 55.811368 
L 272.683636 55.811368 
L 268.625455 57.478737 
L 264.567273 57.478737 
L 260.509091 55.811368 
L 256.450909 57.478737 
L 252.392727 57.478737 
L 248.334545 59.146105 
L 244.276364 57.478737 
L 240.218182 57.478737 
L 236.16 59.146105 
L 232.101818 57.478737 
L 228.043636 55.811368 
L 223.985455 57.478737 
L 219.927273 57.478737 
L 215.869091 57.478737 
L 211.810909 59.146105 
L 207.752727 57.478737 
L 203.694545 59.146105 
L 199.636364 59.146105 
L 195.578182 55.811368 
L 191.52 57.478737 
L 187.461818 57.478737 
L 183.403636 55.811368 
L 179.345455 59.146105 
L 175.287273 59.146105 
L 171.229091 57.478737 
L 167.170909 57.478737 
L 163.112727 57.478737 
L 159.054545 57.478737 
L 154.996364 57.478737 
L 150.938182 57.478737 
L 146.88 57.478737 
L 142.821818 57.478737 
L 138.763636 57.478737 
L 134.705455 57.478737 
L 130.647273 57.478737 
L 126.589091 57.478737 
L 122.530909 57.478737 
L 118.472727 57.478737 
L 114.414545 57.478737 
L 110.356364 57.478737 
L 106.298182 57.478737 
L 102.24 57.478737 
L 98.181818 57.478737 
L 94.123636 57.478737 
L 90.065455 57.478737 
L 86.007273 57.478737 
L 81.949091 57.478737 
L 77.890909 57.478737 
L 73.832727 57.478737 
z
" style="fill:#e377c2;"/>
   </g>
   <g id="PolyCollection_8">
    <path clip-path="url(#p861a20e1b7)" d="M 73.832727 57.478737 
L 73.832727 57.478737 
L 77.890909 57.478737 
L 81.949091 57.478737 
L 86.007273 57.478737 
L 90.065455 57.478737 
L 94.123636 57.478737 
L 98.181818 57.478737 
L 102.24 57.478737 
L 106.298182 57.478737 
L 110.356364 57.478737 
L 114.414545 57.478737 
L 118.472727 57.478737 
L 122.530909 57.478737 
L 126.589091 57.478737 
L 130.647273 57.478737 
L 134.705455 57.478737 
L 138.763636 57.478737 
L 142.821818 57.478737 
L 146.88 57.478737 
L 150.938182 57.478737 
L 154.996364 57.478737 
L 159.054545 57.478737 
L 163.112727 57.478737 
L 167.170909 57.478737 
L 171.229091 57.478737 
L 175.287273 59.146105 
L 179.345455 59.146105 
L 183.403636 55.811368 
L 187.461818 57.478737 
L 191.52 57.478737 
L 195.578182 55.811368 
L 199.636364 59.146105 
L 203.694545 59.146105 
L 207.752727 57.478737 
L 211.810909 59.146105 
L 215.869091 57.478737 
L 219.927273 57.478737 
L 223.985455 57.478737 
L 228.043636 55.811368 
L 232.101818 57.478737 
L 236.16 59.146105 
L 240.218182 57.478737 
L 244.276364 57.478737 
L 248.334545 59.146105 
L 252.392727 57.478737 
L 256.450909 57.478737 
L 260.509091 55.811368 
L 264.567273 57.478737 
L 268.625455 57.478737 
L 272.683636 55.811368 
L 276.741818 55.811368 
L 280.8 55.811368 
L 284.858182 55.811368 
L 288.916364 57.478737 
L 292.974545 59.146105 
L 297.032727 59.146105 
L 301.090909 60.813474 
L 305.149091 77.487158 
L 309.207273 80.821895 
L 313.265455 89.158737 
L 317.323636 94.160842 
L 321.381818 80.821895 
L 325.44 100.830316 
L 329.498182 110.834526 
L 333.556364 105.832421 
L 337.614545 120.838737 
L 341.672727 119.171368 
L 345.730909 127.508211 
L 349.789091 134.177684 
L 353.847273 132.510316 
L 357.905455 130.842947 
L 361.963636 145.849263 
L 366.021818 145.849263 
L 370.08 174.194526 
L 374.138182 177.529263 
L 378.196364 182.531368 
L 382.254545 190.868211 
L 386.312727 187.533474 
L 390.370909 190.868211 
L 394.429091 182.531368 
L 398.487273 189.200842 
L 398.487273 154.186105 
L 398.487273 154.186105 
L 394.429091 144.181895 
L 390.370909 155.853474 
L 386.312727 152.518737 
L 382.254545 149.184 
L 378.196364 140.847158 
L 374.138182 132.510316 
L 370.08 122.506105 
L 366.021818 104.165053 
L 361.963636 107.499789 
L 357.905455 95.828211 
L 353.847273 92.493474 
L 349.789091 99.162947 
L 345.730909 95.828211 
L 341.672727 90.826105 
L 337.614545 95.828211 
L 333.556364 79.154526 
L 329.498182 92.493474 
L 325.44 82.489263 
L 321.381818 74.152421 
L 317.323636 75.819789 
L 313.265455 74.152421 
L 309.207273 62.480842 
L 305.149091 60.813474 
L 301.090909 55.811368 
L 297.032727 57.478737 
L 292.974545 59.146105 
L 288.916364 57.478737 
L 284.858182 55.811368 
L 280.8 55.811368 
L 276.741818 55.811368 
L 272.683636 55.811368 
L 268.625455 57.478737 
L 264.567273 57.478737 
L 260.509091 55.811368 
L 256.450909 57.478737 
L 252.392727 57.478737 
L 248.334545 59.146105 
L 244.276364 57.478737 
L 240.218182 57.478737 
L 236.16 59.146105 
L 232.101818 57.478737 
L 228.043636 55.811368 
L 223.985455 57.478737 
L 219.927273 57.478737 
L 215.869091 57.478737 
L 211.810909 59.146105 
L 207.752727 57.478737 
L 203.694545 59.146105 
L 199.636364 59.146105 
L 195.578182 55.811368 
L 191.52 57.478737 
L 187.461818 57.478737 
L 183.403636 55.811368 
L 179.345455 59.146105 
L 175.287273 59.146105 
L 171.229091 57.478737 
L 167.170909 57.478737 
L 163.112727 57.478737 
L 159.054545 57.478737 
L 154.996364 57.478737 
L 150.938182 57.478737 
L 146.88 57.478737 
L 142.821818 57.478737 
L 138.763636 57.478737 
L 134.705455 57.478737 
L 130.647273 57.478737 
L 126.589091 57.478737 
L 122.530909 57.478737 
L 118.472727 57.478737 
L 114.414545 57.478737 
L 110.356364 57.478737 
L 106.298182 57.478737 
L 102.24 57.478737 
L 98.181818 57.478737 
L 94.123636 57.478737 
L 90.065455 57.478737 
L 86.007273 57.478737 
L 81.949091 57.478737 
L 77.890909 57.478737 
L 73.832727 57.478737 
z
" style="fill:#7f7f7f;"/>
   </g>
   <g id="PolyCollection_9">
    <path clip-path="url(#p861a20e1b7)" d="M 73.832727 57.478737 
L 73.832727 57.478737 
L 77.890909 57.478737 
L 81.949091 57.478737 
L 86.007273 57.478737 
L 90.065455 57.478737 
L 94.123636 57.478737 
L 98.181818 57.478737 
L 102.24 57.478737 
L 106.298182 57.478737 
L 110.356364 57.478737 
L 114.414545 57.478737 
L 118.472727 57.478737 
L 122.530909 57.478737 
L 126.589091 57.478737 
L 130.647273 57.478737 
L 134.705455 57.478737 
L 138.763636 57.478737 
L 142.821818 57.478737 
L 146.88 57.478737 
L 150.938182 57.478737 
L 154.996364 57.478737 
L 159.054545 57.478737 
L 163.112727 57.478737 
L 167.170909 57.478737 
L 171.229091 57.478737 
L 175.287273 59.146105 
L 179.345455 59.146105 
L 183.403636 55.811368 
L 187.461818 57.478737 
L 191.52 57.478737 
L 195.578182 55.811368 
L 199.636364 59.146105 
L 203.694545 59.146105 
L 207.752727 57.478737 
L 211.810909 59.146105 
L 215.869091 57.478737 
L 219.927273 57.478737 
L 223.985455 57.478737 
L 228.043636 55.811368 
L 232.101818 57.478737 
L 236.16 59.146105 
L 240.218182 57.478737 
L 244.276364 57.478737 
L 248.334545 59.146105 
L 252.392727 57.478737 
L 256.450909 57.478737 
L 260.509091 55.811368 
L 264.567273 57.478737 
L 268.625455 57.478737 
L 272.683636 55.811368 
L 276.741818 55.811368 
L 280.8 55.811368 
L 284.858182 55.811368 
L 288.916364 57.478737 
L 292.974545 59.146105 
L 297.032727 57.478737 
L 301.090909 55.811368 
L 305.149091 60.813474 
L 309.207273 62.480842 
L 313.265455 74.152421 
L 317.323636 75.819789 
L 321.381818 74.152421 
L 325.44 82.489263 
L 329.498182 92.493474 
L 333.556364 79.154526 
L 337.614545 95.828211 
L 341.672727 90.826105 
L 345.730909 95.828211 
L 349.789091 99.162947 
L 353.847273 92.493474 
L 357.905455 95.828211 
L 361.963636 107.499789 
L 366.021818 104.165053 
L 370.08 122.506105 
L 374.138182 132.510316 
L 378.196364 140.847158 
L 382.254545 149.184 
L 386.312727 152.518737 
L 390.370909 155.853474 
L 394.429091 144.181895 
L 398.487273 154.186105 
L 398.487273 132.510316 
L 398.487273 132.510316 
L 394.429091 120.838737 
L 390.370909 127.508211 
L 386.312727 122.506105 
L 382.254545 114.169263 
L 378.196364 107.499789 
L 374.138182 102.497684 
L 370.08 90.826105 
L 366.021818 75.819789 
L 361.963636 70.817684 
L 357.905455 60.813474 
L 353.847273 57.478737 
L 349.789091 57.478737 
L 345.730909 57.478737 
L 341.672727 54.144 
L 337.614545 57.478737 
L 333.556364 55.811368 
L 329.498182 54.144 
L 325.44 55.811368 
L 321.381818 54.144 
L 317.323636 59.146105 
L 313.265455 60.813474 
L 309.207273 57.478737 
L 305.149091 57.478737 
L 301.090909 55.811368 
L 297.032727 57.478737 
L 292.974545 59.146105 
L 288.916364 57.478737 
L 284.858182 55.811368 
L 280.8 55.811368 
L 276.741818 55.811368 
L 272.683636 55.811368 
L 268.625455 57.478737 
L 264.567273 57.478737 
L 260.509091 55.811368 
L 256.450909 57.478737 
L 252.392727 57.478737 
L 248.334545 59.146105 
L 244.276364 57.478737 
L 240.218182 57.478737 
L 236.16 59.146105 
L 232.101818 57.478737 
L 228.043636 55.811368 
L 223.985455 57.478737 
L 219.927273 57.478737 
L 215.869091 57.478737 
L 211.810909 59.146105 
L 207.752727 57.478737 
L 203.694545 59.146105 
L 199.636364 59.146105 
L 195.578182 55.811368 
L 191.52 57.478737 
L 187.461818 57.478737 
L 183.403636 55.811368 
L 179.345455 59.146105 
L 175.287273 59.146105 
L 171.229091 57.478737 
L 167.170909 57.478737 
L 163.112727 57.478737 
L 159.054545 57.478737 
L 154.996364 57.478737 
L 150.938182 57.478737 
L 146.88 57.478737 
L 142.821818 57.478737 
L 138.763636 57.478737 
L 134.705455 57.478737 
L 130.647273 57.478737 
L 126.589091 57.478737 
L 122.530909 57.478737 
L 118.472727 57.478737 
L 114.414545 57.478737 
L 110.356364 57.478737 
L 106.298182 57.478737 
L 102.24 57.478737 
L 98.181818 57.478737 
L 94.123636 57.478737 
L 90.065455 57.478737 
L 86.007273 57.478737 
L 81.949091 57.478737 
L 77.890909 57.478737 
L 73.832727 57.478737 
z
" style="fill:#bcbd22;"/>
   </g>
   <g id="PolyCollection_10">
    <path clip-path="url(#p861a20e1b7)" d="M 73.832727 57.478737 
L 73.832727 57.478737 
L 77.890909 57.478737 
L 81.949091 57.478737 
L 86.007273 57.478737 
L 90.065455 57.478737 
L 94.123636 57.478737 
L 98.181818 57.478737 
L 102.24 57.478737 
L 106.298182 57.478737 
L 110.356364 57.478737 
L 114.414545 57.478737 
L 118.472727 57.478737 
L 122.530909 57.478737 
L 126.589091 57.478737 
L 130.647273 57.478737 
L 134.705455 57.478737 
L 138.763636 57.478737 
L 142.821818 57.478737 
L 146.88 57.478737 
L 150.938182 57.478737 
L 154.996364 57.478737 
L 159.054545 57.478737 
L 163.112727 57.478737 
L 167.170909 57.478737 
L 171.229091 57.478737 
L 175.287273 59.146105 
L 179.345455 59.146105 
L 183.403636 55.811368 
L 187.461818 57.478737 
L 191.52 57.478737 
L 195.578182 55.811368 
L 199.636364 59.146105 
L 203.694545 59.146105 
L 207.752727 57.478737 
L 211.810909 59.146105 
L 215.869091 57.478737 
L 219.927273 57.478737 
L 223.985455 57.478737 
L 228.043636 55.811368 
L 232.101818 57.478737 
L 236.16 59.146105 
L 240.218182 57.478737 
L 244.276364 57.478737 
L 248.334545 59.146105 
L 252.392727 57.478737 
L 256.450909 57.478737 
L 260.509091 55.811368 
L 264.567273 57.478737 
L 268.625455 57.478737 
L 272.683636 55.811368 
L 276.741818 55.811368 
L 280.8 55.811368 
L 284.858182 55.811368 
L 288.916364 57.478737 
L 292.974545 59.146105 
L 297.032727 57.478737 
L 301.090909 55.811368 
L 305.149091 57.478737 
L 309.207273 57.478737 
L 313.265455 60.813474 
L 317.323636 59.146105 
L 321.381818 54.144 
L 325.44 55.811368 
L 329.498182 54.144 
L 333.556364 55.811368 
L 337.614545 57.478737 
L 341.672727 54.144 
L 345.730909 57.478737 
L 349.789091 57.478737 
L 353.847273 57.478737 
L 357.905455 60.813474 
L 361.963636 70.817684 
L 366.021818 75.819789 
L 370.08 90.826105 
L 374.138182 102.497684 
L 378.196364 107.499789 
L 382.254545 114.169263 
L 386.312727 122.506105 
L 390.370909 127.508211 
L 394.429091 120.838737 
L 398.487273 132.510316 
L 398.487273 99.162947 
L 398.487273 99.162947 
L 394.429091 87.491368 
L 390.370909 92.493474 
L 386.312727 89.158737 
L 382.254545 85.824 
L 378.196364 77.487158 
L 374.138182 75.819789 
L 370.08 67.482947 
L 366.021818 60.813474 
L 361.963636 59.146105 
L 357.905455 57.478737 
L 353.847273 57.478737 
L 349.789091 57.478737 
L 345.730909 57.478737 
L 341.672727 54.144 
L 337.614545 57.478737 
L 333.556364 55.811368 
L 329.498182 54.144 
L 325.44 55.811368 
L 321.381818 54.144 
L 317.323636 59.146105 
L 313.265455 60.813474 
L 309.207273 57.478737 
L 305.149091 57.478737 
L 301.090909 55.811368 
L 297.032727 57.478737 
L 292.974545 59.146105 
L 288.916364 57.478737 
L 284.858182 55.811368 
L 280.8 55.811368 
L 276.741818 55.811368 
L 272.683636 55.811368 
L 268.625455 57.478737 
L 264.567273 57.478737 
L 260.509091 55.811368 
L 256.450909 57.478737 
L 252.392727 57.478737 
L 248.334545 59.146105 
L 244.276364 57.478737 
L 240.218182 57.478737 
L 236.16 59.146105 
L 232.101818 57.478737 
L 228.043636 55.811368 
L 223.985455 57.478737 
L 219.927273 57.478737 
L 215.869091 57.478737 
L 211.810909 59.146105 
L 207.752727 57.478737 
L 203.694545 59.146105 
L 199.636364 59.146105 
L 195.578182 55.811368 
L 191.52 57.478737 
L 187.461818 57.478737 
L 183.403636 55.811368 
L 179.345455 59.146105 
L 175.287273 59.146105 
L 171.229091 57.478737 
L 167.170909 57.478737 
L 163.112727 57.478737 
L 159.054545 57.478737 
L 154.996364 57.478737 
L 150.938182 57.478737 
L 146.88 57.478737 
L 142.821818 57.478737 
L 138.763636 57.478737 
L 134.705455 57.478737 
L 130.647273 57.478737 
L 126.589091 57.478737 
L 122.530909 57.478737 
L 118.472727 57.478737 
L 114.414545 57.478737 
L 110.356364 57.478737 
L 106.298182 57.478737 
L 102.24 57.478737 
L 98.181818 57.478737 
L 94.123636 57.478737 
L 90.065455 57.478737 
L 86.007273 57.478737 
L 81.949091 57.478737 
L 77.890909 57.478737 
L 73.832727 57.478737 
z
" style="fill:#17becf;"/>
   </g>
   <g id="PolyCollection_11">
    <path clip-path="url(#p861a20e1b7)" d="M 73.832727 57.478737 
L 73.832727 57.478737 
L 77.890909 57.478737 
L 81.949091 57.478737 
L 86.007273 57.478737 
L 90.065455 57.478737 
L 94.123636 57.478737 
L 98.181818 57.478737 
L 102.24 57.478737 
L 106.298182 57.478737 
L 110.356364 57.478737 
L 114.414545 57.478737 
L 118.472727 57.478737 
L 122.530909 57.478737 
L 126.589091 57.478737 
L 130.647273 57.478737 
L 134.705455 57.478737 
L 138.763636 57.478737 
L 142.821818 57.478737 
L 146.88 57.478737 
L 150.938182 57.478737 
L 154.996364 57.478737 
L 159.054545 57.478737 
L 163.112727 57.478737 
L 167.170909 57.478737 
L 171.229091 57.478737 
L 175.287273 59.146105 
L 179.345455 59.146105 
L 183.403636 55.811368 
L 187.461818 57.478737 
L 191.52 57.478737 
L 195.578182 55.811368 
L 199.636364 59.146105 
L 203.694545 59.146105 
L 207.752727 57.478737 
L 211.810909 59.146105 
L 215.869091 57.478737 
L 219.927273 57.478737 
L 223.985455 57.478737 
L 228.043636 55.811368 
L 232.101818 57.478737 
L 236.16 59.146105 
L 240.218182 57.478737 
L 244.276364 57.478737 
L 248.334545 59.146105 
L 252.392727 57.478737 
L 256.450909 57.478737 
L 260.509091 55.811368 
L 264.567273 57.478737 
L 268.625455 57.478737 
L 272.683636 55.811368 
L 276.741818 55.811368 
L 280.8 55.811368 
L 284.858182 55.811368 
L 288.916364 57.478737 
L 292.974545 59.146105 
L 297.032727 57.478737 
L 301.090909 55.811368 
L 305.149091 57.478737 
L 309.207273 57.478737 
L 313.265455 60.813474 
L 317.323636 59.146105 
L 321.381818 54.144 
L 325.44 55.811368 
L 329.498182 54.144 
L 333.556364 55.811368 
L 337.614545 57.478737 
L 341.672727 54.144 
L 345.730909 57.478737 
L 349.789091 57.478737 
L 353.847273 57.478737 
L 357.905455 57.478737 
L 361.963636 59.146105 
L 366.021818 60.813474 
L 370.08 67.482947 
L 374.138182 75.819789 
L 378.196364 77.487158 
L 382.254545 85.824 
L 386.312727 89.158737 
L 390.370909 92.493474 
L 394.429091 87.491368 
L 398.487273 99.162947 
L 398.487273 72.485053 
L 398.487273 72.485053 
L 394.429091 62.480842 
L 390.370909 59.146105 
L 386.312727 59.146105 
L 382.254545 60.813474 
L 378.196364 55.811368 
L 374.138182 57.478737 
L 370.08 55.811368 
L 366.021818 57.478737 
L 361.963636 59.146105 
L 357.905455 57.478737 
L 353.847273 57.478737 
L 349.789091 57.478737 
L 345.730909 57.478737 
L 341.672727 54.144 
L 337.614545 57.478737 
L 333.556364 55.811368 
L 329.498182 54.144 
L 325.44 55.811368 
L 321.381818 54.144 
L 317.323636 59.146105 
L 313.265455 60.813474 
L 309.207273 57.478737 
L 305.149091 57.478737 
L 301.090909 55.811368 
L 297.032727 57.478737 
L 292.974545 59.146105 
L 288.916364 57.478737 
L 284.858182 55.811368 
L 280.8 55.811368 
L 276.741818 55.811368 
L 272.683636 55.811368 
L 268.625455 57.478737 
L 264.567273 57.478737 
L 260.509091 55.811368 
L 256.450909 57.478737 
L 252.392727 57.478737 
L 248.334545 59.146105 
L 244.276364 57.478737 
L 240.218182 57.478737 
L 236.16 59.146105 
L 232.101818 57.478737 
L 228.043636 55.811368 
L 223.985455 57.478737 
L 219.927273 57.478737 
L 215.869091 57.478737 
L 211.810909 59.146105 
L 207.752727 57.478737 
L 203.694545 59.146105 
L 199.636364 59.146105 
L 195.578182 55.811368 
L 191.52 57.478737 
L 187.461818 57.478737 
L 183.403636 55.811368 
L 179.345455 59.146105 
L 175.287273 59.146105 
L 171.229091 57.478737 
L 167.170909 57.478737 
L 163.112727 57.478737 
L 159.054545 57.478737 
L 154.996364 57.478737 
L 150.938182 57.478737 
L 146.88 57.478737 
L 142.821818 57.478737 
L 138.763636 57.478737 
L 134.705455 57.478737 
L 130.647273 57.478737 
L 126.589091 57.478737 
L 122.530909 57.478737 
L 118.472727 57.478737 
L 114.414545 57.478737 
L 110.356364 57.478737 
L 106.298182 57.478737 
L 102.24 57.478737 
L 98.181818 57.478737 
L 94.123636 57.478737 
L 90.065455 57.478737 
L 86.007273 57.478737 
L 81.949091 57.478737 
L 77.890909 57.478737 
L 73.832727 57.478737 
z
" style="fill:#1f77b4;"/>
   </g>
   <g id="PolyCollection_12">
    <path clip-path="url(#p861a20e1b7)" d="M 73.832727 57.478737 
L 73.832727 57.478737 
L 77.890909 57.478737 
L 81.949091 57.478737 
L 86.007273 57.478737 
L 90.065455 57.478737 
L 94.123636 57.478737 
L 98.181818 57.478737 
L 102.24 57.478737 
L 106.298182 57.478737 
L 110.356364 57.478737 
L 114.414545 57.478737 
L 118.472727 57.478737 
L 122.530909 57.478737 
L 126.589091 57.478737 
L 130.647273 57.478737 
L 134.705455 57.478737 
L 138.763636 57.478737 
L 142.821818 57.478737 
L 146.88 57.478737 
L 150.938182 57.478737 
L 154.996364 57.478737 
L 159.054545 57.478737 
L 163.112727 57.478737 
L 167.170909 57.478737 
L 171.229091 57.478737 
L 175.287273 59.146105 
L 179.345455 59.146105 
L 183.403636 55.811368 
L 187.461818 57.478737 
L 191.52 57.478737 
L 195.578182 55.811368 
L 199.636364 59.146105 
L 203.694545 59.146105 
L 207.752727 57.478737 
L 211.810909 59.146105 
L 215.869091 57.478737 
L 219.927273 57.478737 
L 223.985455 57.478737 
L 228.043636 55.811368 
L 232.101818 57.478737 
L 236.16 59.146105 
L 240.218182 57.478737 
L 244.276364 57.478737 
L 248.334545 59.146105 
L 252.392727 57.478737 
L 256.450909 57.478737 
L 260.509091 55.811368 
L 264.567273 57.478737 
L 268.625455 57.478737 
L 272.683636 55.811368 
L 276.741818 55.811368 
L 280.8 55.811368 
L 284.858182 55.811368 
L 288.916364 57.478737 
L 292.974545 59.146105 
L 297.032727 57.478737 
L 301.090909 55.811368 
L 305.149091 57.478737 
L 309.207273 57.478737 
L 313.265455 60.813474 
L 317.323636 59.146105 
L 321.381818 54.144 
L 325.44 55.811368 
L 329.498182 54.144 
L 333.556364 55.811368 
L 337.614545 57.478737 
L 341.672727 54.144 
L 345.730909 57.478737 
L 349.789091 57.478737 
L 353.847273 57.478737 
L 357.905455 57.478737 
L 361.963636 59.146105 
L 366.021818 57.478737 
L 370.08 55.811368 
L 374.138182 57.478737 
L 378.196364 55.811368 
L 382.254545 60.813474 
L 386.312727 59.146105 
L 390.370909 59.146105 
L 394.429091 62.480842 
L 398.487273 72.485053 
L 398.487273 57.478737 
L 398.487273 57.478737 
L 394.429091 54.144 
L 390.370909 55.811368 
L 386.312727 59.146105 
L 382.254545 60.813474 
L 378.196364 55.811368 
L 374.138182 57.478737 
L 370.08 55.811368 
L 366.021818 57.478737 
L 361.963636 59.146105 
L 357.905455 57.478737 
L 353.847273 57.478737 
L 349.789091 57.478737 
L 345.730909 57.478737 
L 341.672727 54.144 
L 337.614545 57.478737 
L 333.556364 55.811368 
L 329.498182 54.144 
L 325.44 55.811368 
L 321.381818 54.144 
L 317.323636 59.146105 
L 313.265455 60.813474 
L 309.207273 57.478737 
L 305.149091 57.478737 
L 301.090909 55.811368 
L 297.032727 57.478737 
L 292.974545 59.146105 
L 288.916364 57.478737 
L 284.858182 55.811368 
L 280.8 55.811368 
L 276.741818 55.811368 
L 272.683636 55.811368 
L 268.625455 57.478737 
L 264.567273 57.478737 
L 260.509091 55.811368 
L 256.450909 57.478737 
L 252.392727 57.478737 
L 248.334545 59.146105 
L 244.276364 57.478737 
L 240.218182 57.478737 
L 236.16 59.146105 
L 232.101818 57.478737 
L 228.043636 55.811368 
L 223.985455 57.478737 
L 219.927273 57.478737 
L 215.869091 57.478737 
L 211.810909 59.146105 
L 207.752727 57.478737 
L 203.694545 59.146105 
L 199.636364 59.146105 
L 195.578182 55.811368 
L 191.52 57.478737 
L 187.461818 57.478737 
L 183.403636 55.811368 
L 179.345455 59.146105 
L 175.287273 59.146105 
L 171.229091 57.478737 
L 167.170909 57.478737 
L 163.112727 57.478737 
L 159.054545 57.478737 
L 154.996364 57.478737 
L 150.938182 57.478737 
L 146.88 57.478737 
L 142.821818 57.478737 
L 138.763636 57.478737 
L 134.705455 57.478737 
L 130.647273 57.478737 
L 126.589091 57.478737 
L 122.530909 57.478737 
L 118.472727 57.478737 
L 114.414545 57.478737 
L 110.356364 57.478737 
L 106.298182 57.478737 
L 102.24 57.478737 
L 98.181818 57.478737 
L 94.123636 57.478737 
L 90.065455 57.478737 
L 86.007273 57.478737 
L 81.949091 57.478737 
L 77.890909 57.478737 
L 73.832727 57.478737 
z
" style="fill:#ff7f0e;"/>
   </g>
   <g id="matplotlib.axis_1">
    <g id="xtick_1">
     <g id="line2d_1">
      <defs>
       <path d="M 0 0 
L 0 3.5 
" id="m2cd08c4861" style="stroke:#000000;stroke-width:0.8;"/>
      </defs>
      <g>
       <use style="stroke:#000000;stroke-width:0.8;" x="73.832727" xlink:href="#m2cd08c4861" y="307.584"/>
      </g>
     </g>
     <g id="text_1">
      <!-- 0 -->
      <defs>
       <path d="M 31.78125 66.40625 
Q 24.171875 66.40625 20.328125 58.90625 
Q 16.5 51.421875 16.5 36.375 
Q 16.5 21.390625 20.328125 13.890625 
Q 24.171875 6.390625 31.78125 6.390625 
Q 39.453125 6.390625 43.28125 13.890625 
Q 47.125 21.390625 47.125 36.375 
Q 47.125 51.421875 43.28125 58.90625 
Q 39.453125 66.40625 31.78125 66.40625 
z
M 31.78125 74.21875 
Q 44.046875 74.21875 50.515625 64.515625 
Q 56.984375 54.828125 56.984375 36.375 
Q 56.984375 17.96875 50.515625 8.265625 
Q 44.046875 -1.421875 31.78125 -1.421875 
Q 19.53125 -1.421875 13.0625 8.265625 
Q 6.59375 17.96875 6.59375 36.375 
Q 6.59375 54.828125 13.0625 64.515625 
Q 19.53125 74.21875 31.78125 74.21875 
z
" id="DejaVuSans-30"/>
      </defs>
      <g transform="translate(70.651477 322.182437)scale(0.1 -0.1)">
       <use xlink:href="#DejaVuSans-30"/>
      </g>
     </g>
    </g>
    <g id="xtick_2">
     <g id="line2d_2">
      <g>
       <use style="stroke:#000000;stroke-width:0.8;" x="114.414545" xlink:href="#m2cd08c4861" y="307.584"/>
      </g>
     </g>
     <g id="text_2">
      <!-- 10 -->
      <defs>
       <path d="M 12.40625 8.296875 
L 28.515625 8.296875 
L 28.515625 63.921875 
L 10.984375 60.40625 
L 10.984375 69.390625 
L 28.421875 72.90625 
L 38.28125 72.90625 
L 38.28125 8.296875 
L 54.390625 8.296875 
L 54.390625 0 
L 12.40625 0 
z
" id="DejaVuSans-31"/>
      </defs>
      <g transform="translate(108.052045 322.182437)scale(0.1 -0.1)">
       <use xlink:href="#DejaVuSans-31"/>
       <use x="63.623047" xlink:href="#DejaVuSans-30"/>
      </g>
     </g>
    </g>
    <g id="xtick_3">
     <g id="line2d_3">
      <g>
       <use style="stroke:#000000;stroke-width:0.8;" x="154.996364" xlink:href="#m2cd08c4861" y="307.584"/>
      </g>
     </g>
     <g id="text_3">
      <!-- 20 -->
      <defs>
       <path d="M 19.1875 8.296875 
L 53.609375 8.296875 
L 53.609375 0 
L 7.328125 0 
L 7.328125 8.296875 
Q 12.9375 14.109375 22.625 23.890625 
Q 32.328125 33.6875 34.8125 36.53125 
Q 39.546875 41.84375 41.421875 45.53125 
Q 43.3125 49.21875 43.3125 52.78125 
Q 43.3125 58.59375 39.234375 62.25 
Q 35.15625 65.921875 28.609375 65.921875 
Q 23.96875 65.921875 18.8125 64.3125 
Q 13.671875 62.703125 7.8125 59.421875 
L 7.8125 69.390625 
Q 13.765625 71.78125 18.9375 73 
Q 24.125 74.21875 28.421875 74.21875 
Q 39.75 74.21875 46.484375 68.546875 
Q 53.21875 62.890625 53.21875 53.421875 
Q 53.21875 48.921875 51.53125 44.890625 
Q 49.859375 40.875 45.40625 35.40625 
Q 44.1875 33.984375 37.640625 27.21875 
Q 31.109375 20.453125 19.1875 8.296875 
z
" id="DejaVuSans-32"/>
      </defs>
      <g transform="translate(148.633864 322.182437)scale(0.1 -0.1)">
       <use xlink:href="#DejaVuSans-32"/>
       <use x="63.623047" xlink:href="#DejaVuSans-30"/>
      </g>
     </g>
    </g>
    <g id="xtick_4">
     <g id="line2d_4">
      <g>
       <use style="stroke:#000000;stroke-width:0.8;" x="195.578182" xlink:href="#m2cd08c4861" y="307.584"/>
      </g>
     </g>
     <g id="text_4">
      <!-- 30 -->
      <defs>
       <path d="M 40.578125 39.3125 
Q 47.65625 37.796875 51.625 33 
Q 55.609375 28.21875 55.609375 21.1875 
Q 55.609375 10.40625 48.1875 4.484375 
Q 40.765625 -1.421875 27.09375 -1.421875 
Q 22.515625 -1.421875 17.65625 -0.515625 
Q 12.796875 0.390625 7.625 2.203125 
L 7.625 11.71875 
Q 11.71875 9.328125 16.59375 8.109375 
Q 21.484375 6.890625 26.8125 6.890625 
Q 36.078125 6.890625 40.9375 10.546875 
Q 45.796875 14.203125 45.796875 21.1875 
Q 45.796875 27.640625 41.28125 31.265625 
Q 36.765625 34.90625 28.71875 34.90625 
L 20.21875 34.90625 
L 20.21875 43.015625 
L 29.109375 43.015625 
Q 36.375 43.015625 40.234375 45.921875 
Q 44.09375 48.828125 44.09375 54.296875 
Q 44.09375 59.90625 40.109375 62.90625 
Q 36.140625 65.921875 28.71875 65.921875 
Q 24.65625 65.921875 20.015625 65.03125 
Q 15.375 64.15625 9.8125 62.3125 
L 9.8125 71.09375 
Q 15.4375 72.65625 20.34375 73.4375 
Q 25.25 74.21875 29.59375 74.21875 
Q 40.828125 74.21875 47.359375 69.109375 
Q 53.90625 64.015625 53.90625 55.328125 
Q 53.90625 49.265625 50.4375 45.09375 
Q 46.96875 40.921875 40.578125 39.3125 
z
" id="DejaVuSans-33"/>
      </defs>
      <g transform="translate(189.215682 322.182437)scale(0.1 -0.1)">
       <use xlink:href="#DejaVuSans-33"/>
       <use x="63.623047" xlink:href="#DejaVuSans-30"/>
      </g>
     </g>
    </g>
    <g id="xtick_5">
     <g id="line2d_5">
      <g>
       <use style="stroke:#000000;stroke-width:0.8;" x="236.16" xlink:href="#m2cd08c4861" y="307.584"/>
      </g>
     </g>
     <g id="text_5">
      <!-- 40 -->
      <defs>
       <path d="M 37.796875 64.3125 
L 12.890625 25.390625 
L 37.796875 25.390625 
z
M 35.203125 72.90625 
L 47.609375 72.90625 
L 47.609375 25.390625 
L 58.015625 25.390625 
L 58.015625 17.1875 
L 47.609375 17.1875 
L 47.609375 0 
L 37.796875 0 
L 37.796875 17.1875 
L 4.890625 17.1875 
L 4.890625 26.703125 
z
" id="DejaVuSans-34"/>
      </defs>
      <g transform="translate(229.7975 322.182437)scale(0.1 -0.1)">
       <use xlink:href="#DejaVuSans-34"/>
       <use x="63.623047" xlink:href="#DejaVuSans-30"/>
      </g>
     </g>
    </g>
    <g id="xtick_6">
     <g id="line2d_6">
      <g>
       <use style="stroke:#000000;stroke-width:0.8;" x="276.741818" xlink:href="#m2cd08c4861" y="307.584"/>
      </g>
     </g>
     <g id="text_6">
      <!-- 50 -->
      <defs>
       <path d="M 10.796875 72.90625 
L 49.515625 72.90625 
L 49.515625 64.59375 
L 19.828125 64.59375 
L 19.828125 46.734375 
Q 21.96875 47.46875 24.109375 47.828125 
Q 26.265625 48.1875 28.421875 48.1875 
Q 40.625 48.1875 47.75 41.5 
Q 54.890625 34.8125 54.890625 23.390625 
Q 54.890625 11.625 47.5625 5.09375 
Q 40.234375 -1.421875 26.90625 -1.421875 
Q 22.3125 -1.421875 17.546875 -0.640625 
Q 12.796875 0.140625 7.71875 1.703125 
L 7.71875 11.625 
Q 12.109375 9.234375 16.796875 8.0625 
Q 21.484375 6.890625 26.703125 6.890625 
Q 35.15625 6.890625 40.078125 11.328125 
Q 45.015625 15.765625 45.015625 23.390625 
Q 45.015625 31 40.078125 35.4375 
Q 35.15625 39.890625 26.703125 39.890625 
Q 22.75 39.890625 18.8125 39.015625 
Q 14.890625 38.140625 10.796875 36.28125 
z
" id="DejaVuSans-35"/>
      </defs>
      <g transform="translate(270.379318 322.182437)scale(0.1 -0.1)">
       <use xlink:href="#DejaVuSans-35"/>
       <use x="63.623047" xlink:href="#DejaVuSans-30"/>
      </g>
     </g>
    </g>
    <g id="xtick_7">
     <g id="line2d_7">
      <g>
       <use style="stroke:#000000;stroke-width:0.8;" x="317.323636" xlink:href="#m2cd08c4861" y="307.584"/>
      </g>
     </g>
     <g id="text_7">
      <!-- 60 -->
      <defs>
       <path d="M 33.015625 40.375 
Q 26.375 40.375 22.484375 35.828125 
Q 18.609375 31.296875 18.609375 23.390625 
Q 18.609375 15.53125 22.484375 10.953125 
Q 26.375 6.390625 33.015625 6.390625 
Q 39.65625 6.390625 43.53125 10.953125 
Q 47.40625 15.53125 47.40625 23.390625 
Q 47.40625 31.296875 43.53125 35.828125 
Q 39.65625 40.375 33.015625 40.375 
z
M 52.59375 71.296875 
L 52.59375 62.3125 
Q 48.875 64.0625 45.09375 64.984375 
Q 41.3125 65.921875 37.59375 65.921875 
Q 27.828125 65.921875 22.671875 59.328125 
Q 17.53125 52.734375 16.796875 39.40625 
Q 19.671875 43.65625 24.015625 45.921875 
Q 28.375 48.1875 33.59375 48.1875 
Q 44.578125 48.1875 50.953125 41.515625 
Q 57.328125 34.859375 57.328125 23.390625 
Q 57.328125 12.15625 50.6875 5.359375 
Q 44.046875 -1.421875 33.015625 -1.421875 
Q 20.359375 -1.421875 13.671875 8.265625 
Q 6.984375 17.96875 6.984375 36.375 
Q 6.984375 53.65625 15.1875 63.9375 
Q 23.390625 74.21875 37.203125 74.21875 
Q 40.921875 74.21875 44.703125 73.484375 
Q 48.484375 72.75 52.59375 71.296875 
z
" id="DejaVuSans-36"/>
      </defs>
      <g transform="translate(310.961136 322.182437)scale(0.1 -0.1)">
       <use xlink:href="#DejaVuSans-36"/>
       <use x="63.623047" xlink:href="#DejaVuSans-30"/>
      </g>
     </g>
    </g>
    <g id="xtick_8">
     <g id="line2d_8">
      <g>
       <use style="stroke:#000000;stroke-width:0.8;" x="357.905455" xlink:href="#m2cd08c4861" y="307.584"/>
      </g>
     </g>
     <g id="text_8">
      <!-- 70 -->
      <defs>
       <path d="M 8.203125 72.90625 
L 55.078125 72.90625 
L 55.078125 68.703125 
L 28.609375 0 
L 18.3125 0 
L 43.21875 64.59375 
L 8.203125 64.59375 
z
" id="DejaVuSans-37"/>
      </defs>
      <g transform="translate(351.542955 322.182437)scale(0.1 -0.1)">
       <use xlink:href="#DejaVuSans-37"/>
       <use x="63.623047" xlink:href="#DejaVuSans-30"/>
      </g>
     </g>
    </g>
    <g id="xtick_9">
     <g id="line2d_9">
      <g>
       <use style="stroke:#000000;stroke-width:0.8;" x="398.487273" xlink:href="#m2cd08c4861" y="307.584"/>
      </g>
     </g>
     <g id="text_9">
      <!-- 80 -->
      <defs>
       <path d="M 31.78125 34.625 
Q 24.75 34.625 20.71875 30.859375 
Q 16.703125 27.09375 16.703125 20.515625 
Q 16.703125 13.921875 20.71875 10.15625 
Q 24.75 6.390625 31.78125 6.390625 
Q 38.8125 6.390625 42.859375 10.171875 
Q 46.921875 13.96875 46.921875 20.515625 
Q 46.921875 27.09375 42.890625 30.859375 
Q 38.875 34.625 31.78125 34.625 
z
M 21.921875 38.8125 
Q 15.578125 40.375 12.03125 44.71875 
Q 8.5 49.078125 8.5 55.328125 
Q 8.5 64.0625 14.71875 69.140625 
Q 20.953125 74.21875 31.78125 74.21875 
Q 42.671875 74.21875 48.875 69.140625 
Q 55.078125 64.0625 55.078125 55.328125 
Q 55.078125 49.078125 51.53125 44.71875 
Q 48 40.375 41.703125 38.8125 
Q 48.828125 37.15625 52.796875 32.3125 
Q 56.78125 27.484375 56.78125 20.515625 
Q 56.78125 9.90625 50.3125 4.234375 
Q 43.84375 -1.421875 31.78125 -1.421875 
Q 19.734375 -1.421875 13.25 4.234375 
Q 6.78125 9.90625 6.78125 20.515625 
Q 6.78125 27.484375 10.78125 32.3125 
Q 14.796875 37.15625 21.921875 38.8125 
z
M 18.3125 54.390625 
Q 18.3125 48.734375 21.84375 45.5625 
Q 25.390625 42.390625 31.78125 42.390625 
Q 38.140625 42.390625 41.71875 45.5625 
Q 45.3125 48.734375 45.3125 54.390625 
Q 45.3125 60.0625 41.71875 63.234375 
Q 38.140625 66.40625 31.78125 66.40625 
Q 25.390625 66.40625 21.84375 63.234375 
Q 18.3125 60.0625 18.3125 54.390625 
z
" id="DejaVuSans-38"/>
      </defs>
      <g transform="translate(392.124773 322.182437)scale(0.1 -0.1)">
       <use xlink:href="#DejaVuSans-38"/>
       <use x="63.623047" xlink:href="#DejaVuSans-30"/>
      </g>
     </g>
    </g>
    <g id="text_10">
     <!-- Generations -->
     <defs>
      <path d="M 59.515625 10.40625 
L 59.515625 29.984375 
L 43.40625 29.984375 
L 43.40625 38.09375 
L 69.28125 38.09375 
L 69.28125 6.78125 
Q 63.578125 2.734375 56.6875 0.65625 
Q 49.8125 -1.421875 42 -1.421875 
Q 24.90625 -1.421875 15.25 8.5625 
Q 5.609375 18.5625 5.609375 36.375 
Q 5.609375 54.25 15.25 64.234375 
Q 24.90625 74.21875 42 74.21875 
Q 49.125 74.21875 55.546875 72.453125 
Q 61.96875 70.703125 67.390625 67.28125 
L 67.390625 56.78125 
Q 61.921875 61.421875 55.765625 63.765625 
Q 49.609375 66.109375 42.828125 66.109375 
Q 29.4375 66.109375 22.71875 58.640625 
Q 16.015625 51.171875 16.015625 36.375 
Q 16.015625 21.625 22.71875 14.15625 
Q 29.4375 6.6875 42.828125 6.6875 
Q 48.046875 6.6875 52.140625 7.59375 
Q 56.25 8.5 59.515625 10.40625 
z
" id="DejaVuSans-47"/>
      <path d="M 56.203125 29.59375 
L 56.203125 25.203125 
L 14.890625 25.203125 
Q 15.484375 15.921875 20.484375 11.0625 
Q 25.484375 6.203125 34.421875 6.203125 
Q 39.59375 6.203125 44.453125 7.46875 
Q 49.3125 8.734375 54.109375 11.28125 
L 54.109375 2.78125 
Q 49.265625 0.734375 44.1875 -0.34375 
Q 39.109375 -1.421875 33.890625 -1.421875 
Q 20.796875 -1.421875 13.15625 6.1875 
Q 5.515625 13.8125 5.515625 26.8125 
Q 5.515625 40.234375 12.765625 48.109375 
Q 20.015625 56 32.328125 56 
Q 43.359375 56 49.78125 48.890625 
Q 56.203125 41.796875 56.203125 29.59375 
z
M 47.21875 32.234375 
Q 47.125 39.59375 43.09375 43.984375 
Q 39.0625 48.390625 32.421875 48.390625 
Q 24.90625 48.390625 20.390625 44.140625 
Q 15.875 39.890625 15.1875 32.171875 
z
" id="DejaVuSans-65"/>
      <path d="M 54.890625 33.015625 
L 54.890625 0 
L 45.90625 0 
L 45.90625 32.71875 
Q 45.90625 40.484375 42.875 44.328125 
Q 39.84375 48.1875 33.796875 48.1875 
Q 26.515625 48.1875 22.3125 43.546875 
Q 18.109375 38.921875 18.109375 30.90625 
L 18.109375 0 
L 9.078125 0 
L 9.078125 54.6875 
L 18.109375 54.6875 
L 18.109375 46.1875 
Q 21.34375 51.125 25.703125 53.5625 
Q 30.078125 56 35.796875 56 
Q 45.21875 56 50.046875 50.171875 
Q 54.890625 44.34375 54.890625 33.015625 
z
" id="DejaVuSans-6e"/>
      <path d="M 41.109375 46.296875 
Q 39.59375 47.171875 37.8125 47.578125 
Q 36.03125 48 33.890625 48 
Q 26.265625 48 22.1875 43.046875 
Q 18.109375 38.09375 18.109375 28.8125 
L 18.109375 0 
L 9.078125 0 
L 9.078125 54.6875 
L 18.109375 54.6875 
L 18.109375 46.1875 
Q 20.953125 51.171875 25.484375 53.578125 
Q 30.03125 56 36.53125 56 
Q 37.453125 56 38.578125 55.875 
Q 39.703125 55.765625 41.0625 55.515625 
z
" id="DejaVuSans-72"/>
      <path d="M 34.28125 27.484375 
Q 23.390625 27.484375 19.1875 25 
Q 14.984375 22.515625 14.984375 16.5 
Q 14.984375 11.71875 18.140625 8.90625 
Q 21.296875 6.109375 26.703125 6.109375 
Q 34.1875 6.109375 38.703125 11.40625 
Q 43.21875 16.703125 43.21875 25.484375 
L 43.21875 27.484375 
z
M 52.203125 31.203125 
L 52.203125 0 
L 43.21875 0 
L 43.21875 8.296875 
Q 40.140625 3.328125 35.546875 0.953125 
Q 30.953125 -1.421875 24.3125 -1.421875 
Q 15.921875 -1.421875 10.953125 3.296875 
Q 6 8.015625 6 15.921875 
Q 6 25.140625 12.171875 29.828125 
Q 18.359375 34.515625 30.609375 34.515625 
L 43.21875 34.515625 
L 43.21875 35.40625 
Q 43.21875 41.609375 39.140625 45 
Q 35.0625 48.390625 27.6875 48.390625 
Q 23 48.390625 18.546875 47.265625 
Q 14.109375 46.140625 10.015625 43.890625 
L 10.015625 52.203125 
Q 14.9375 54.109375 19.578125 55.046875 
Q 24.21875 56 28.609375 56 
Q 40.484375 56 46.34375 49.84375 
Q 52.203125 43.703125 52.203125 31.203125 
z
" id="DejaVuSans-61"/>
      <path d="M 18.3125 70.21875 
L 18.3125 54.6875 
L 36.8125 54.6875 
L 36.8125 47.703125 
L 18.3125 47.703125 
L 18.3125 18.015625 
Q 18.3125 11.328125 20.140625 9.421875 
Q 21.96875 7.515625 27.59375 7.515625 
L 36.8125 7.515625 
L 36.8125 0 
L 27.59375 0 
Q 17.1875 0 13.234375 3.875 
Q 9.28125 7.765625 9.28125 18.015625 
L 9.28125 47.703125 
L 2.6875 47.703125 
L 2.6875 54.6875 
L 9.28125 54.6875 
L 9.28125 70.21875 
z
" id="DejaVuSans-74"/>
      <path d="M 9.421875 54.6875 
L 18.40625 54.6875 
L 18.40625 0 
L 9.421875 0 
z
M 9.421875 75.984375 
L 18.40625 75.984375 
L 18.40625 64.59375 
L 9.421875 64.59375 
z
" id="DejaVuSans-69"/>
      <path d="M 30.609375 48.390625 
Q 23.390625 48.390625 19.1875 42.75 
Q 14.984375 37.109375 14.984375 27.296875 
Q 14.984375 17.484375 19.15625 11.84375 
Q 23.34375 6.203125 30.609375 6.203125 
Q 37.796875 6.203125 41.984375 11.859375 
Q 46.1875 17.53125 46.1875 27.296875 
Q 46.1875 37.015625 41.984375 42.703125 
Q 37.796875 48.390625 30.609375 48.390625 
z
M 30.609375 56 
Q 42.328125 56 49.015625 48.375 
Q 55.71875 40.765625 55.71875 27.296875 
Q 55.71875 13.875 49.015625 6.21875 
Q 42.328125 -1.421875 30.609375 -1.421875 
Q 18.84375 -1.421875 12.171875 6.21875 
Q 5.515625 13.875 5.515625 27.296875 
Q 5.515625 40.765625 12.171875 48.375 
Q 18.84375 56 30.609375 56 
z
" id="DejaVuSans-6f"/>
      <path d="M 44.28125 53.078125 
L 44.28125 44.578125 
Q 40.484375 46.53125 36.375 47.5 
Q 32.28125 48.484375 27.875 48.484375 
Q 21.1875 48.484375 17.84375 46.4375 
Q 14.5 44.390625 14.5 40.28125 
Q 14.5 37.15625 16.890625 35.375 
Q 19.28125 33.59375 26.515625 31.984375 
L 29.59375 31.296875 
Q 39.15625 29.25 43.1875 25.515625 
Q 47.21875 21.78125 47.21875 15.09375 
Q 47.21875 7.46875 41.1875 3.015625 
Q 35.15625 -1.421875 24.609375 -1.421875 
Q 20.21875 -1.421875 15.453125 -0.5625 
Q 10.6875 0.296875 5.421875 2 
L 5.421875 11.28125 
Q 10.40625 8.6875 15.234375 7.390625 
Q 20.0625 6.109375 24.8125 6.109375 
Q 31.15625 6.109375 34.5625 8.28125 
Q 37.984375 10.453125 37.984375 14.40625 
Q 37.984375 18.0625 35.515625 20.015625 
Q 33.0625 21.96875 24.703125 23.78125 
L 21.578125 24.515625 
Q 13.234375 26.265625 9.515625 29.90625 
Q 5.8125 33.546875 5.8125 39.890625 
Q 5.8125 47.609375 11.28125 51.796875 
Q 16.75 56 26.8125 56 
Q 31.78125 56 36.171875 55.265625 
Q 40.578125 54.546875 44.28125 53.078125 
z
" id="DejaVuSans-73"/>
     </defs>
     <g transform="translate(205.662344 335.860562)scale(0.1 -0.1)">
      <use xlink:href="#DejaVuSans-47"/>
      <use x="77.490234" xlink:href="#DejaVuSans-65"/>
      <use x="139.013672" xlink:href="#DejaVuSans-6e"/>
      <use x="202.392578" xlink:href="#DejaVuSans-65"/>
      <use x="263.916016" xlink:href="#DejaVuSans-72"/>
      <use x="305.029297" xlink:href="#DejaVuSans-61"/>
      <use x="366.308594" xlink:href="#DejaVuSans-74"/>
      <use x="405.517578" xlink:href="#DejaVuSans-69"/>
      <use x="433.300781" xlink:href="#DejaVuSans-6f"/>
      <use x="494.482422" xlink:href="#DejaVuSans-6e"/>
      <use x="557.861328" xlink:href="#DejaVuSans-73"/>
     </g>
    </g>
   </g>
   <g id="matplotlib.axis_2">
    <g id="ytick_1">
     <g id="line2d_10">
      <defs>
       <path d="M 0 0 
L -3.5 0 
" id="m24c6ced9b9" style="stroke:#000000;stroke-width:0.8;"/>
      </defs>
      <g>
       <use style="stroke:#000000;stroke-width:0.8;" x="57.6" xlink:href="#m24c6ced9b9" y="307.584"/>
      </g>
     </g>
     <g id="text_11">
      <!-- 0 -->
      <g transform="translate(44.2375 311.383219)scale(0.1 -0.1)">
       <use xlink:href="#DejaVuSans-30"/>
      </g>
     </g>
    </g>
    <g id="ytick_2">
     <g id="line2d_11">
      <g>
       <use style="stroke:#000000;stroke-width:0.8;" x="57.6" xlink:href="#m24c6ced9b9" y="274.236632"/>
      </g>
     </g>
     <g id="text_12">
      <!-- 20 -->
      <g transform="translate(37.875 278.03585)scale(0.1 -0.1)">
       <use xlink:href="#DejaVuSans-32"/>
       <use x="63.623047" xlink:href="#DejaVuSans-30"/>
      </g>
     </g>
    </g>
    <g id="ytick_3">
     <g id="line2d_12">
      <g>
       <use style="stroke:#000000;stroke-width:0.8;" x="57.6" xlink:href="#m24c6ced9b9" y="240.889263"/>
      </g>
     </g>
     <g id="text_13">
      <!-- 40 -->
      <g transform="translate(37.875 244.688482)scale(0.1 -0.1)">
       <use xlink:href="#DejaVuSans-34"/>
       <use x="63.623047" xlink:href="#DejaVuSans-30"/>
      </g>
     </g>
    </g>
    <g id="ytick_4">
     <g id="line2d_13">
      <g>
       <use style="stroke:#000000;stroke-width:0.8;" x="57.6" xlink:href="#m24c6ced9b9" y="207.541895"/>
      </g>
     </g>
     <g id="text_14">
      <!-- 60 -->
      <g transform="translate(37.875 211.341113)scale(0.1 -0.1)">
       <use xlink:href="#DejaVuSans-36"/>
       <use x="63.623047" xlink:href="#DejaVuSans-30"/>
      </g>
     </g>
    </g>
    <g id="ytick_5">
     <g id="line2d_14">
      <g>
       <use style="stroke:#000000;stroke-width:0.8;" x="57.6" xlink:href="#m24c6ced9b9" y="174.194526"/>
      </g>
     </g>
     <g id="text_15">
      <!-- 80 -->
      <g transform="translate(37.875 177.993745)scale(0.1 -0.1)">
       <use xlink:href="#DejaVuSans-38"/>
       <use x="63.623047" xlink:href="#DejaVuSans-30"/>
      </g>
     </g>
    </g>
    <g id="ytick_6">
     <g id="line2d_15">
      <g>
       <use style="stroke:#000000;stroke-width:0.8;" x="57.6" xlink:href="#m24c6ced9b9" y="140.847158"/>
      </g>
     </g>
     <g id="text_16">
      <!-- 100 -->
      <g transform="translate(31.5125 144.646377)scale(0.1 -0.1)">
       <use xlink:href="#DejaVuSans-31"/>
       <use x="63.623047" xlink:href="#DejaVuSans-30"/>
       <use x="127.246094" xlink:href="#DejaVuSans-30"/>
      </g>
     </g>
    </g>
    <g id="ytick_7">
     <g id="line2d_16">
      <g>
       <use style="stroke:#000000;stroke-width:0.8;" x="57.6" xlink:href="#m24c6ced9b9" y="107.499789"/>
      </g>
     </g>
     <g id="text_17">
      <!-- 120 -->
      <g transform="translate(31.5125 111.299008)scale(0.1 -0.1)">
       <use xlink:href="#DejaVuSans-31"/>
       <use x="63.623047" xlink:href="#DejaVuSans-32"/>
       <use x="127.246094" xlink:href="#DejaVuSans-30"/>
      </g>
     </g>
    </g>
    <g id="ytick_8">
     <g id="line2d_17">
      <g>
       <use style="stroke:#000000;stroke-width:0.8;" x="57.6" xlink:href="#m24c6ced9b9" y="74.152421"/>
      </g>
     </g>
     <g id="text_18">
      <!-- 140 -->
      <g transform="translate(31.5125 77.95164)scale(0.1 -0.1)">
       <use xlink:href="#DejaVuSans-31"/>
       <use x="63.623047" xlink:href="#DejaVuSans-34"/>
       <use x="127.246094" xlink:href="#DejaVuSans-30"/>
      </g>
     </g>
    </g>
    <g id="text_19">
     <!-- Size per Species -->
     <defs>
      <path d="M 53.515625 70.515625 
L 53.515625 60.890625 
Q 47.90625 63.578125 42.921875 64.890625 
Q 37.9375 66.21875 33.296875 66.21875 
Q 25.25 66.21875 20.875 63.09375 
Q 16.5 59.96875 16.5 54.203125 
Q 16.5 49.359375 19.40625 46.890625 
Q 22.3125 44.4375 30.421875 42.921875 
L 36.375 41.703125 
Q 47.40625 39.59375 52.65625 34.296875 
Q 57.90625 29 57.90625 20.125 
Q 57.90625 9.515625 50.796875 4.046875 
Q 43.703125 -1.421875 29.984375 -1.421875 
Q 24.8125 -1.421875 18.96875 -0.25 
Q 13.140625 0.921875 6.890625 3.21875 
L 6.890625 13.375 
Q 12.890625 10.015625 18.65625 8.296875 
Q 24.421875 6.59375 29.984375 6.59375 
Q 38.421875 6.59375 43.015625 9.90625 
Q 47.609375 13.234375 47.609375 19.390625 
Q 47.609375 24.75 44.3125 27.78125 
Q 41.015625 30.8125 33.5 32.328125 
L 27.484375 33.5 
Q 16.453125 35.6875 11.515625 40.375 
Q 6.59375 45.0625 6.59375 53.421875 
Q 6.59375 63.09375 13.40625 68.65625 
Q 20.21875 74.21875 32.171875 74.21875 
Q 37.3125 74.21875 42.625 73.28125 
Q 47.953125 72.359375 53.515625 70.515625 
z
" id="DejaVuSans-53"/>
      <path d="M 5.515625 54.6875 
L 48.1875 54.6875 
L 48.1875 46.484375 
L 14.40625 7.171875 
L 48.1875 7.171875 
L 48.1875 0 
L 4.296875 0 
L 4.296875 8.203125 
L 38.09375 47.515625 
L 5.515625 47.515625 
z
" id="DejaVuSans-7a"/>
      <path id="DejaVuSans-20"/>
      <path d="M 18.109375 8.203125 
L 18.109375 -20.796875 
L 9.078125 -20.796875 
L 9.078125 54.6875 
L 18.109375 54.6875 
L 18.109375 46.390625 
Q 20.953125 51.265625 25.265625 53.625 
Q 29.59375 56 35.59375 56 
Q 45.5625 56 51.78125 48.09375 
Q 58.015625 40.1875 58.015625 27.296875 
Q 58.015625 14.40625 51.78125 6.484375 
Q 45.5625 -1.421875 35.59375 -1.421875 
Q 29.59375 -1.421875 25.265625 0.953125 
Q 20.953125 3.328125 18.109375 8.203125 
z
M 48.6875 27.296875 
Q 48.6875 37.203125 44.609375 42.84375 
Q 40.53125 48.484375 33.40625 48.484375 
Q 26.265625 48.484375 22.1875 42.84375 
Q 18.109375 37.203125 18.109375 27.296875 
Q 18.109375 17.390625 22.1875 11.75 
Q 26.265625 6.109375 33.40625 6.109375 
Q 40.53125 6.109375 44.609375 11.75 
Q 48.6875 17.390625 48.6875 27.296875 
z
" id="DejaVuSans-70"/>
      <path d="M 48.78125 52.59375 
L 48.78125 44.1875 
Q 44.96875 46.296875 41.140625 47.34375 
Q 37.3125 48.390625 33.40625 48.390625 
Q 24.65625 48.390625 19.8125 42.84375 
Q 14.984375 37.3125 14.984375 27.296875 
Q 14.984375 17.28125 19.8125 11.734375 
Q 24.65625 6.203125 33.40625 6.203125 
Q 37.3125 6.203125 41.140625 7.25 
Q 44.96875 8.296875 48.78125 10.40625 
L 48.78125 2.09375 
Q 45.015625 0.34375 40.984375 -0.53125 
Q 36.96875 -1.421875 32.421875 -1.421875 
Q 20.0625 -1.421875 12.78125 6.34375 
Q 5.515625 14.109375 5.515625 27.296875 
Q 5.515625 40.671875 12.859375 48.328125 
Q 20.21875 56 33.015625 56 
Q 37.15625 56 41.109375 55.140625 
Q 45.0625 54.296875 48.78125 52.59375 
z
" id="DejaVuSans-63"/>
     </defs>
     <g transform="translate(25.432812 215.520969)rotate(-90)scale(0.1 -0.1)">
      <use xlink:href="#DejaVuSans-53"/>
      <use x="63.476562" xlink:href="#DejaVuSans-69"/>
      <use x="91.259766" xlink:href="#DejaVuSans-7a"/>
      <use x="143.75" xlink:href="#DejaVuSans-65"/>
      <use x="205.273438" xlink:href="#DejaVuSans-20"/>
      <use x="237.060547" xlink:href="#DejaVuSans-70"/>
      <use x="300.537109" xlink:href="#DejaVuSans-65"/>
      <use x="362.060547" xlink:href="#DejaVuSans-72"/>
      <use x="403.173828" xlink:href="#DejaVuSans-20"/>
      <use x="434.960938" xlink:href="#DejaVuSans-53"/>
      <use x="498.4375" xlink:href="#DejaVuSans-70"/>
      <use x="561.914062" xlink:href="#DejaVuSans-65"/>
      <use x="623.4375" xlink:href="#DejaVuSans-63"/>
      <use x="678.417969" xlink:href="#DejaVuSans-69"/>
      <use x="706.201172" xlink:href="#DejaVuSans-65"/>
      <use x="767.724609" xlink:href="#DejaVuSans-73"/>
     </g>
    </g>
   </g>
   <g id="patch_3">
    <path d="M 57.6 307.584 
L 57.6 41.472 
" style="fill:none;stroke:#000000;stroke-linecap:square;stroke-linejoin:miter;stroke-width:0.8;"/>
   </g>
   <g id="patch_4">
    <path d="M 414.72 307.584 
L 414.72 41.472 
" style="fill:none;stroke:#000000;stroke-linecap:square;stroke-linejoin:miter;stroke-width:0.8;"/>
   </g>
   <g id="patch_5">
    <path d="M 57.6 307.584 
L 414.72 307.584 
" style="fill:none;stroke:#000000;stroke-linecap:square;stroke-linejoin:miter;stroke-width:0.8;"/>
   </g>
   <g id="patch_6">
    <path d="M 57.6 41.472 
L 414.72 41.472 
" style="fill:none;stroke:#000000;stroke-linecap:square;stroke-linejoin:miter;stroke-width:0.8;"/>
   </g>
   <g id="text_20">
    <!-- Speciation -->
    <g transform="translate(204.714375 35.472)scale(0.12 -0.12)">
     <use xlink:href="#DejaVuSans-53"/>
     <use x="63.476562" xlink:href="#DejaVuSans-70"/>
     <use x="126.953125" xlink:href="#DejaVuSans-65"/>
     <use x="188.476562" xlink:href="#DejaVuSans-63"/>
     <use x="243.457031" xlink:href="#DejaVuSans-69"/>
     <use x="271.240234" xlink:href="#DejaVuSans-61"/>
     <use x="332.519531" xlink:href="#DejaVuSans-74"/>
     <use x="371.728516" xlink:href="#DejaVuSans-69"/>
     <use x="399.511719" xlink:href="#DejaVuSans-6f"/>
     <use x="460.693359" xlink:href="#DejaVuSans-6e"/>
    </g>
   </g>
  </g>
 </g>
 <defs>
  <clipPath id="p861a20e1b7">
   <rect height="266.112" width="357.12" x="57.6" y="41.472"/>
  </clipPath>
 </defs>
</svg>
